<?xml version="1.0" encoding="UTF-8" standalone="no"?>
<!DOCTYPE svg PUBLIC "-//W3C//DTD SVG 1.1//EN" "http://www.w3.org/Graphics/SVG/1.1/DTD/svg11.dtd">
<svg width="100%" height="100%" viewBox="0 0 100 82" version="1.1" xmlns="http://www.w3.org/2000/svg" xmlns:xlink="http://www.w3.org/1999/xlink" xml:space="preserve" xmlns:serif="http://www.serif.com/" style="fill-rule:evenodd;clip-rule:evenodd;stroke-linejoin:round;stroke-miterlimit:2;">
    <g transform="matrix(1,0,0,1,-10.2243,0.0254319)">
        <g transform="matrix(0.095238,-1.4585e-16,-1.4585e-16,-0.095238,-2,127.63)">
            <path d="M318,1334C276,1316 117,1056 129,1025C145,984 177,1007 241,1107C277,1161 312,1211 321,1218C339,1234 339,1233 366,1111L386,1019L324,1012C290,1008 263,1001 263,997C263,992 292,987 327,985L392,982L491,788L589,593L504,677C457,723 378,807 329,863C279,920 230,968 218,972C194,980 168,960 168,932C168,887 578,483 624,483C636,483 658,491 672,501C732,541 907,701 1037,833C1143,940 1176,981 1176,1001C1176,1041 1053,1276 1017,1307C985,1333 985,1334 757,1334C631,1334 486,1336 435,1339C383,1342 331,1340 318,1334ZM536,1186C493,1146 455,1113 452,1113C448,1113 431,1143 412,1181C373,1261 368,1257 515,1258L614,1259L536,1186ZM1001,1226C1015,1207 1044,1157 1065,1116L1103,1040L1003,1040C891,1040 892,1039 919,1113C947,1192 936,1207 901,1139C884,1105 867,1074 865,1072C859,1066 683,1241 683,1252C683,1256 748,1260 829,1260L975,1260L1001,1226ZM830,1039C830,1032 483,1015 477,1021C475,1023 511,1071 558,1128L644,1230L737,1138C788,1087 830,1042 830,1039ZM816,962C819,959 780,878 731,781L642,604L627,641C539,851 494,964 494,971C494,979 808,970 816,962ZM1028,957L1074,950L959,840C828,714 710,609 700,609C696,609 733,689 782,788L872,966L927,965C957,965 1003,961 1028,957Z" style="fill:rgb(242,13,13);fill-rule:nonzero;"/>
        </g>
    </g>
</svg>
