<?xml version="1.0" encoding="UTF-8" standalone="no"?>
<!DOCTYPE svg PUBLIC "-//W3C//DTD SVG 1.1//EN" "http://www.w3.org/Graphics/SVG/1.1/DTD/svg11.dtd">
<svg width="100%" height="100%" viewBox="0 0 1943 845" version="1.1" xmlns="http://www.w3.org/2000/svg" xmlns:xlink="http://www.w3.org/1999/xlink" xml:space="preserve" xmlns:serif="http://www.serif.com/" style="fill-rule:evenodd;clip-rule:evenodd;stroke-linejoin:round;stroke-miterlimit:2;">
    <g transform="matrix(1,0,0,1,-224.933,-1284.1)">
        <g transform="matrix(4.16667,0,0,4.16667,0,-620.829)">
            <path d="M339.906,473.846L321.424,473.846L321.424,492.026L339.906,492.026C346.471,492.026 350.006,488.996 350.006,482.835C350.006,476.472 346.168,473.846 339.906,473.846M348.289,530.809L335.664,505.357L321.424,505.357L321.424,530.809L307.284,530.809L307.284,460.11L340.209,460.11C353.541,460.11 364.55,467.483 364.55,482.532C364.55,493.137 360.005,499.803 351.016,503.338L364.55,530.809L348.289,530.809Z" style="fill-rule:nonzero;"/>
        </g>
        <g transform="matrix(4.16667,0,0,4.16667,0,-547.183)">
            <path d="M396.863,490.914C394.439,489.399 392.116,488.692 387.168,488.692C381.916,488.692 379.088,491.116 379.088,495.358C379.088,499.095 381.209,502.428 387.168,502.428C391.713,502.428 395.348,500.105 396.863,497.58L396.863,490.914ZM396.863,513.134L396.863,509.599C394.339,512.225 389.894,514.245 384.945,514.245C375.048,514.245 365.15,508.185 365.15,495.358C365.15,483.643 374.643,477.785 386.663,477.785C391.51,477.785 394.641,478.794 396.863,479.905L396.863,477.279C396.863,473.542 394.339,470.513 389.289,470.513C382.925,470.513 379.592,471.422 374.745,474.047L369.391,464.351C375.552,460.817 380.704,458.999 389.289,458.999C402.115,458.999 410.801,465.664 410.801,477.582L410.801,513.134L396.863,513.134Z" style="fill-rule:nonzero;"/>
        </g>
        <g transform="matrix(4.16667,0,0,4.16667,0,-631.763)">
            <path d="M417.873,480.41L431.811,480.41L431.811,533.434L417.873,533.434L417.873,480.41ZM424.841,476.067C420.499,476.067 416.863,472.431 416.863,468.088C416.863,463.745 420.499,460.109 424.841,460.109C429.185,460.109 432.821,463.745 432.821,468.088C432.821,472.431 429.185,476.067 424.841,476.067" style="fill-rule:nonzero;"/>
        </g>
        <g transform="matrix(0,-4.16667,-4.16667,0,3932.43,3299.4)">
            <path d="M410.046,503.893L476.705,503.893L483.672,489.955L410.046,489.955L410.046,503.893Z" style="fill-rule:nonzero;"/>
        </g>
        <g transform="matrix(4.16667,0,0,4.16667,0,-547.183)">
            <path d="M481.703,514.245C473.32,514.245 465.14,511.821 459.483,508.084L464.13,497.479C469.785,500.61 475.744,502.328 482.511,502.328C487.965,502.328 489.581,501.015 489.581,498.287C489.581,495.864 487.662,494.652 481.804,492.934C469.078,489.097 460.897,485.966 460.897,474.755C460.897,463.746 469.684,458.999 482.107,458.999C488.773,458.999 496.045,461.019 501.701,464.15L497.257,475.159C492.005,472.331 486.248,470.917 481.804,470.917C476.148,470.917 474.634,472.028 474.634,474.351C474.634,476.573 476.249,477.482 485.642,480.512C495.136,483.643 503.316,487.077 503.316,497.682C503.316,509.902 493.621,514.245 481.703,514.245" style="fill-rule:nonzero;"/>
        </g>
        <g transform="matrix(4.16667,0,0,4.16667,0,79.1792)">
            <path d="M334.452,447.919C315.97,447.919 303.547,433.779 303.547,411.458C303.547,389.945 316.474,374.998 334.957,374.998C349.4,374.998 357.076,381.765 361.722,392.673L348.289,398.228C345.663,392.976 342.431,389.037 334.755,389.037C324.15,389.037 318.09,398.329 318.09,411.458C318.09,424.487 324.251,434.082 334.856,434.082C344.552,434.082 347.885,429.537 348.693,423.376L337.482,423.376L337.482,410.146L362.832,410.146L362.832,419.438C362.832,437.617 350.814,447.919 334.452,447.919" style="fill-rule:nonzero;"/>
        </g>
        <g transform="matrix(4.16667,0,0,4.16667,0,68.2417)">
            <path d="M369.5,396.41L383.438,396.41L383.438,449.433L369.5,449.433L369.5,396.41ZM376.468,392.066C372.126,392.066 368.49,388.43 368.49,384.087C368.49,379.744 372.126,376.109 376.468,376.109C380.812,376.109 384.448,379.744 384.448,384.087C384.448,388.43 380.812,392.066 376.468,392.066" style="fill-rule:nonzero;"/>
        </g>
        <g transform="matrix(4.16667,0,0,4.16667,0,148.196)">
            <path d="M422.019,393.48C419.796,391.46 417.07,390.046 413.939,390.046C408.485,390.046 404.95,392.37 404.95,401.56L404.95,430.244L391.012,430.244L391.012,377.22L404.95,377.22L404.95,380.754C407.374,378.23 410.909,376.109 415.858,376.109C420.403,376.109 423.836,377.926 425.655,379.845L422.019,393.48Z" style="fill-rule:nonzero;"/>
        </g>
        <g transform="matrix(0,-4.16667,-4.16667,0,3534.05,3601.02)">
            <path d="M398.435,419.892L465.093,419.892L472.063,405.954L398.435,405.954L398.435,419.892Z" style="fill-rule:nonzero;"/>
        </g>
        <g transform="matrix(4.16667,0,0,4.16667,0,152.825)">
            <path d="M470.094,430.244C461.711,430.244 453.531,427.82 447.874,424.083L452.521,413.478C458.176,416.609 464.135,418.326 470.902,418.326C476.356,418.326 477.972,417.013 477.972,414.286C477.972,411.862 476.053,410.65 470.195,408.933C457.469,405.096 449.288,401.965 449.288,390.754C449.288,379.745 458.075,374.998 470.498,374.998C477.164,374.998 484.436,377.017 490.092,380.148L485.648,391.157C480.396,388.33 474.639,386.916 470.195,386.916C464.539,386.916 463.025,388.026 463.025,390.349C463.025,392.571 464.64,393.48 474.033,396.511C483.527,399.641 491.707,403.075 491.707,413.68C491.707,425.9 482.012,430.244 470.094,430.244" style="fill-rule:nonzero;"/>
        </g>
        <g transform="matrix(4.16667,0,0,4.16667,0,36.5583)">
            <path d="M86.226,400.163L118.354,400.163L118.354,432.983L86.115,432.983L86.115,400.512C86.102,400.344 86.093,400.185 86.226,400.163" style="fill-rule:nonzero;"/>
        </g>
        <g transform="matrix(4.16667,0,0,4.16667,0,310.525)">
            <path d="M118.468,367.229L150.601,367.229L150.601,400.165L118.357,400.165L118.357,367.578C118.344,367.414 118.336,367.251 118.468,367.229" style="fill-rule:nonzero;"/>
        </g>
        <g transform="matrix(4.16667,0,0,4.16667,0,-511.379)">
            <path d="M86.112,432.982L150.6,432.982L150.6,465.802L86.112,465.802L86.112,531.669L53.984,531.669L53.984,465.802L86.112,465.802L86.112,432.982Z" style="fill-rule:nonzero;"/>
        </g>
        <g transform="matrix(4.16667,0,0,4.16667,0,-647.967)">
            <path d="M182.843,465.763L247.216,465.763C247.139,476.665 247.365,487.874 247.105,498.583L182.843,498.583C182.766,509.52 182.993,520.767 182.728,531.514C172.058,531.441 161.085,531.669 150.599,531.402L150.599,498.583L182.843,498.583L182.843,465.763Z" style="fill-rule:nonzero;"/>
        </g>
        <g transform="matrix(4.16667,0,0,4.16667,0,36.5583)">
            <path d="M150.599,498.851C150.672,487.909 150.449,476.662 150.71,465.919L182.843,465.919L182.843,432.983L214.972,432.983C215.049,422.084 214.822,410.872 215.087,400.163L247.216,400.163C247.288,378.246 247.066,356.023 247.327,334.295L279.46,334.295L279.46,400.163L247.216,400.163L247.216,432.983L214.972,432.983C214.899,443.924 215.121,455.171 214.861,465.919L182.843,465.919L182.843,498.851L150.599,498.851Z" style="fill-rule:nonzero;"/>
        </g>
        <g transform="matrix(4.16667,0,0,4.16667,0,629.267)">
            <path d="M322.766,348.94L319.598,339.904L316.43,348.94L322.766,348.94ZM324.638,354.304L314.558,354.304L312.938,359.02L305.414,359.02L315.746,331.876L323.45,331.876L333.782,359.02L326.258,359.02L324.638,354.304Z" style="fill-rule:nonzero;"/>
        </g>
        <g transform="matrix(4.16667,0,0,4.16667,0,632.417)">
            <path d="M343.178,331.12L343.178,345.88C343.178,346.672 343.208,347.482 343.268,348.31C343.328,349.138 343.508,349.888 343.808,350.56C344.108,351.232 344.582,351.778 345.23,352.198C345.878,352.618 346.79,352.828 347.966,352.828C349.142,352.828 350.048,352.618 350.684,352.198C351.32,351.778 351.794,351.232 352.106,350.56C352.418,349.888 352.604,349.138 352.664,348.31C352.724,347.482 352.754,346.672 352.754,345.88L352.754,331.12L359.774,331.12L359.774,346.852C359.774,351.076 358.808,354.16 356.876,356.104C354.944,358.048 351.974,359.02 347.966,359.02C343.958,359.02 340.982,358.048 339.038,356.104C337.094,354.16 336.122,351.076 336.122,346.852L336.122,331.12L343.178,331.12Z" style="fill-rule:nonzero;"/>
        </g>
        <g transform="matrix(4.16667,0,0,4.16667,0,629.267)">
            <path d="M380.366,338.824C379.598,338.2 378.83,337.738 378.062,337.438C377.294,337.138 376.55,336.988 375.83,336.988C374.918,336.988 374.174,337.204 373.598,337.636C373.022,338.068 372.734,338.632 372.734,339.328C372.734,339.808 372.878,340.204 373.166,340.516C373.454,340.828 373.832,341.098 374.3,341.326C374.768,341.554 375.296,341.752 375.884,341.92C376.472,342.088 377.054,342.268 377.63,342.46C379.934,343.228 381.62,344.254 382.688,345.538C383.756,346.822 384.29,348.496 384.29,350.56C384.29,351.952 384.056,353.212 383.588,354.34C383.12,355.468 382.436,356.434 381.536,357.238C380.636,358.042 379.532,358.666 378.224,359.11C376.916,359.554 375.434,359.776 373.778,359.776C370.346,359.776 367.166,358.756 364.238,356.716L367.262,351.028C368.318,351.964 369.362,352.66 370.394,353.116C371.426,353.572 372.446,353.8 373.454,353.8C374.606,353.8 375.464,353.536 376.028,353.008C376.592,352.48 376.874,351.88 376.874,351.208C376.874,350.8 376.802,350.446 376.658,350.146C376.514,349.846 376.274,349.57 375.938,349.318C375.602,349.066 375.164,348.832 374.624,348.616C374.084,348.4 373.43,348.16 372.662,347.896C371.75,347.608 370.856,347.29 369.98,346.942C369.104,346.594 368.324,346.132 367.64,345.556C366.956,344.98 366.404,344.254 365.984,343.378C365.564,342.502 365.354,341.392 365.354,340.048C365.354,338.704 365.576,337.486 366.02,336.394C366.464,335.302 367.088,334.366 367.892,333.586C368.696,332.806 369.68,332.2 370.844,331.768C372.008,331.336 373.31,331.12 374.75,331.12C376.094,331.12 377.498,331.306 378.962,331.678C380.426,332.05 381.83,332.596 383.174,333.316L380.366,338.824Z" style="fill-rule:nonzero;"/>
        </g>
        <g transform="matrix(4.16667,0,0,4.16667,0,629.267)">
            <path d="M399.194,337.852L399.194,359.02L392.138,359.02L392.138,337.852L386.342,337.852L386.342,331.876L404.99,331.876L404.99,337.852L399.194,337.852Z" style="fill-rule:nonzero;"/>
        </g>
        <g transform="matrix(4.16667,0,0,4.16667,0,629.267)">
            <path d="M415.178,344.008L416.51,344.008C417.902,344.008 418.97,343.72 419.714,343.144C420.458,342.568 420.83,341.74 420.83,340.66C420.83,339.58 420.458,338.752 419.714,338.176C418.97,337.6 417.902,337.312 416.51,337.312L415.178,337.312L415.178,344.008ZM430.694,359.02L421.91,359.02L415.178,348.58L415.178,359.02L408.122,359.02L408.122,331.876L419.102,331.876C420.614,331.876 421.934,332.098 423.062,332.542C424.19,332.986 425.12,333.592 425.852,334.36C426.584,335.128 427.136,336.016 427.508,337.024C427.88,338.032 428.066,339.112 428.066,340.264C428.066,342.328 427.568,344.002 426.572,345.286C425.576,346.57 424.106,347.44 422.162,347.896L430.694,359.02Z" style="fill-rule:nonzero;"/>
        </g>
        <g transform="matrix(4.16667,0,0,4.16667,0,629.267)">
            <path d="M448.406,348.94L445.238,339.904L442.07,348.94L448.406,348.94ZM450.278,354.304L440.198,354.304L438.578,359.02L431.054,359.02L441.386,331.876L449.09,331.876L459.422,359.02L451.898,359.02L450.278,354.304Z" style="fill-rule:nonzero;"/>
        </g>
        <g transform="matrix(4.16667,0,0,4.16667,0,629.267)">
            <path d="M469.574,331.876L469.574,353.044L478.034,353.044L478.034,359.02L462.518,359.02L462.518,331.876L469.574,331.876Z" style="fill-rule:nonzero;"/>
        </g>
        <g transform="matrix(4.16667,0,0,4.16667,0,629.267)">
            <rect x="481.67" y="331.876" width="7.056" height="27.144"/>
        </g>
        <g transform="matrix(4.16667,0,0,4.16667,0,629.267)">
            <path d="M509.174,348.94L506.006,339.904L502.838,348.94L509.174,348.94ZM511.046,354.304L500.966,354.304L499.346,359.02L491.822,359.02L502.154,331.876L509.858,331.876L520.19,359.02L512.666,359.02L511.046,354.304Z" style="fill-rule:nonzero;"/>
        </g>
    </g>
</svg>
