<?xml version="1.0" encoding="UTF-8" standalone="no"?>
<!DOCTYPE svg PUBLIC "-//W3C//DTD SVG 1.1//EN" "http://www.w3.org/Graphics/SVG/1.1/DTD/svg11.dtd">
<svg width="100%" height="100%" viewBox="0 0 151 178" version="1.1" xmlns="http://www.w3.org/2000/svg" xmlns:xlink="http://www.w3.org/1999/xlink" xml:space="preserve" xmlns:serif="http://www.serif.com/" style="fill-rule:evenodd;clip-rule:evenodd;stroke-linejoin:round;stroke-miterlimit:2;">
    <g transform="matrix(0.095238,-1.4585e-16,-1.4585e-16,-0.095238,0,177)">
        <g transform="matrix(1,0,0,1,-1.33325,-1.27546)">
            <path d="M126,1838C101,1812 99,1787 121,1756C151,1713 231,1739 231,1791C231,1822 197,1859 168,1859C156,1859 138,1849 126,1838Z" style="fill-rule:nonzero;"/>
        </g>
        <path d="M363,1762C340,1729 342,1674 368,1649C399,1617 455,1620 482,1655C507,1687 509,1700 492,1736C470,1786 391,1801 363,1762Z" style="fill-rule:nonzero;"/>
        <path d="M71,1520C55,1507 49,1490 51,1463C53,1442 191,1306 228,1287C298,1252 367,1280 384,1349C402,1419 340,1472 197,1511C102,1537 94,1537 71,1520Z" style="fill-rule:nonzero;"/>
        <path d="M722,1522C701,1509 672,1458 672,1433C672,1408 730,1355 756,1355C791,1355 840,1410 840,1449C840,1510 773,1551 722,1522Z" style="fill-rule:nonzero;"/>
        <path d="M966,1284C892,1247 888,1134 959,1091C999,1067 1030,1066 1071,1087C1132,1118 1150,1178 1118,1239C1102,1271 1054,1302 1022,1302C1011,1302 986,1294 966,1284Z" style="fill-rule:nonzero;"/>
        <path d="M406,1203C379,1176 384,1164 445,1089C476,1051 512,1003 524,983C537,962 566,937 593,924C635,904 642,903 675,917C720,936 746,971 746,1014C746,1070 707,1112 609,1162C504,1215 433,1229 406,1203Z" style="fill-rule:nonzero;"/>
        <path d="M63,1107C53,1095 52,1085 59,1073C74,1050 87,1047 111,1065C127,1077 129,1084 120,1099C104,1125 80,1128 63,1107Z" style="fill-rule:nonzero;"/>
        <path d="M153,1043C145,1022 164,998 190,998C210,998 226,1032 215,1050C205,1067 160,1062 153,1043Z" style="fill-rule:nonzero;"/>
        <path d="M1182,954C1124,909 1172,807 1243,825C1277,833 1306,884 1298,919C1283,977 1231,993 1182,954Z" style="fill-rule:nonzero;"/>
        <path d="M309,944C306,938 305,922 309,908C314,890 323,882 340,882C375,882 393,906 378,934C366,957 321,964 309,944Z" style="fill-rule:nonzero;"/>
        <path d="M-0.762,893.804C-4.762,889.804 0,809 0,736L0,604L43,525C66,482 153,346 234,223L388.463,-2.517C388.463,-2.517 796.676,-0.899 823.494,-1.634C823.494,1.87 749.147,162.501 622,315C577.705,368.127 487,449 420,530C222,767 93.703,860.688 43,882C18.308,892.379 3.238,897.804 -0.762,893.804Z" style="fill-rule:nonzero;"/>
        <path d="M442,846C435,838 431,817 432,801C435,778 442,771 465,768C518,762 544,809 509,845C488,865 458,866 442,846Z" style="fill-rule:nonzero;"/>
        <path d="M811,785C804,778 798,760 798,745C798,710 873,557 903,530C956,482 1050,524 1050,596C1050,623 1039,642 1001,683C948,740 867,798 840,798C831,798 818,792 811,785Z" style="fill-rule:nonzero;"/>
        <path d="M476,718C467,695 486,667 509,667C533,667 551,695 543,718C534,740 484,740 476,718Z" style="fill-rule:nonzero;"/>
        <path d="M599,646C583,627 588,599 612,584C648,561 689,613 661,646C645,666 615,666 599,646Z" style="fill-rule:nonzero;"/>
        <path d="M1366,641C1309,627 1276,586 1276,529C1276,488 1281,477 1310,451C1356,409 1413,409 1460,448C1524,502 1533,565 1482,613C1449,644 1415,652 1366,641Z" style="fill-rule:nonzero;"/>
        <path d="M704,499C676,466 717,414 753,437C777,452 782,480 766,499C750,519 720,519 704,499Z" style="fill-rule:nonzero;"/>
        <path d="M782,345C774,321 802,290 823,297C841,303 854,332 847,350C837,376 790,372 782,345Z" style="fill-rule:nonzero;"/>
        <path d="M1.678,349.587C-3.941,350.241 -0.994,262.718 -0.994,234.718C-0.994,199.718 13,191 46,114L96.54,-1.845L337,-1L299,60C182,244 45.612,344.473 1.678,349.587Z" style="fill-rule:nonzero;"/>
        <path d="M1096,299C1085,271 1099,208 1139,102L1180.64,-2.595L1370.59,-2.258L1365,35C1365,92 1241,266 1175,300C1137,320 1103,319 1096,299Z" style="fill-rule:nonzero;"/>
        <path d="M1484,273C1412,244 1433,136 1510,137C1575,137 1599,221 1547,262C1517,286 1516,286 1484,273Z" style="fill-rule:nonzero;"/>
        <path d="M883,254C871,231 886,210 915,210C939,210 948,226 940,252C931,278 897,279 883,254Z" style="fill-rule:nonzero;"/>
        <path d="M955,138C936,123 934,116 943,98C955,76 1007,58 1020,72C1033,84 1017,137 997,147C984,154 972,152 955,138Z" style="fill-rule:nonzero;"/>
    </g>
</svg>
