<svg width="780" height="266" viewBox="0 0 780 266" fill="none" xmlns="http://www.w3.org/2000/svg">
<path d="M0.470828 225.197C0.4763 224.927 1.76544 223.284 1.34255 219.979C0.630037 214.333 1.39368 202.492 1.82725 195.021C2.70284 179.977 3.81633 165.107 4.87298 150.083C5.19728 146.192 5.37141 142.54 7.04407 137.573C7.5342 136.298 8.07543 134.872 9.54405 133.064C10.7441 131.304 14.8562 128.879 18.224 129.562C24.3505 131.003 25.1685 133.519 26.9159 135.321C27.8687 136.554 28.8245 137.826 29.7428 139.066C38.5972 151.103 48.3844 165.022 55.8979 175.252C58.4945 178.795 61.2264 182.812 64.0378 186.65C63.9792 186.605 63.8232 186.434 63.4514 186.182C63.054 185.907 62.0801 185.369 60.7615 185.348C59.3636 185.299 58.1421 185.952 57.7276 186.297C57.4727 186.491 57.3078 186.662 57.2002 186.788C57.1149 186.891 57.0705 186.96 57.0447 187.008C56.9634 187.181 57.1386 186.987 57.3064 186.674C57.4633 186.401 57.6553 185.99 57.8356 185.554C58.5627 183.787 59.1938 181.619 59.7491 179.475C60.861 175.125 61.7026 170.724 62.2939 166.734C65.0396 149.062 66.5069 131.062 72.3539 112.366C72.5356 111.845 72.7279 111.349 72.9365 110.873C73.0408 110.635 73.1492 110.402 73.2629 110.174C73.39 109.916 73.5614 109.592 73.7279 109.31C74.423 108.32 75.0828 106.654 78.1756 105.602C79.6788 105.169 81.3007 105.422 82.4376 105.951C83.3942 106.38 84.1546 106.992 84.6679 107.482C85.1486 107.94 85.5729 108.437 85.943 108.924C86.2571 109.34 86.5498 109.772 86.8313 110.221C88.8914 113.646 89.9513 116.694 91.0771 119.884C93.2071 126.164 94.8156 132.472 96.2971 138.819C99.1518 151.553 101.737 164.163 103.016 177.651L103.014 177.63C103.533 184.241 103.865 191.168 103.975 197.913C104.004 199.439 104.028 200.964 104.049 202.493C104.207 215.663 104.247 228.723 103.658 241.191C103.305 248.487 103.817 253.662 102.082 260.827C101.885 261.643 100.492 265.23 100.09 265.412C99.5366 265.662 99.0418 265.777 98.5958 265.777C98.5957 265.777 98.5957 265.777 98.5956 265.777C95.6797 265.776 94.8515 260.879 93.3256 256.906C92.4749 239.185 92.4047 220.896 92.068 202.785C91.897 194.595 91.5868 186.955 90.815 178.636C90.8146 178.624 90.8105 178.587 90.8101 178.574C89.6838 167.722 86.9534 154.877 83.991 143.37C82.5965 137.355 81.0268 131.215 79.081 125.371C78.1285 122.522 76.9671 119.517 75.9336 117.694C75.6984 117.268 75.4484 116.937 75.5227 117.015C75.5483 117.039 75.6024 117.094 75.6992 117.178C75.8088 117.273 76.002 117.433 76.2919 117.617C76.7546 117.919 78.1842 118.685 80.126 118.596C82.0902 118.556 83.8327 117.442 84.3259 116.95C84.6538 116.66 84.8701 116.402 84.9942 116.238C85.0952 116.104 85.1543 116.008 85.1866 115.951C85.2852 115.757 85.101 116.063 84.9269 116.575C81.3963 127.382 79.5953 141.145 77.6161 154.551C76.6414 161.328 75.7003 168.239 74.5315 175.274C73.9307 178.822 73.3063 182.355 72.3554 186.198C71.8514 188.143 71.3615 190.07 70.268 192.565C69.4734 193.955 69.5043 195.233 65.9962 198.059C65.5166 198.388 65.0502 198.67 64.3504 198.981C63.6269 199.299 62.7972 199.55 61.917 199.676C60.0977 199.94 58.3891 199.613 57.0907 199.083C56.4305 198.816 55.8517 198.498 55.3476 198.165C54.9262 197.886 54.6235 197.65 54.3136 197.388C53.7087 196.872 53.2288 196.356 52.8145 195.851C39.1765 178.683 27.6978 160.695 15.0663 144.843C14.7606 144.465 14.4454 144.162 14.3718 144.113C14.342 144.024 14.394 144.441 16.2483 144.787C17.1527 144.936 18.5868 144.772 19.6128 144.263C20.6644 143.761 21.191 143.191 21.4659 142.871C21.9743 142.216 21.8015 142.326 21.7258 142.628C21.2203 144.123 20.8717 147.535 20.8025 150.656C20.2624 170.049 19.9557 189.031 19.87 207.174C21.4442 210.921 20.3522 217.402 19.6199 221.534C19.0944 224.482 19.7612 224.356 19.5636 225.436C19.46 226.04 18.0248 228.738 17.922 229.344C17.7257 230.455 18.0707 232.153 17.8764 233.256C17.7432 233.998 15.0797 238.462 14.6326 239.755C14.4161 240.372 14.7652 241.455 14.6175 241.718C14.6174 241.727 14.6174 241.735 14.6173 241.743C14.4687 241.983 13.1746 241.491 13.027 241.732C12.3559 242.791 12.8493 243.931 10.2092 246.944C9.3423 247.949 7.38104 251.385 6.22249 250.864C5.2714 250.44 4.73248 245.879 3.45567 244.933C5.15583 243.474 2.20437 240.753 1.91197 238.349C1.68002 236.481 2.15951 233.79 1.97821 231.793C1.91193 231.042 0.46366 225.625 0.470828 225.197Z" fill="white"/>
<path d="M130.86 164.357C130.861 164.426 129.606 164.935 130.107 165.822C130.946 167.332 130.529 170.647 130.37 172.717C129.845 179.273 129.079 185.794 129.244 192.522C129.346 196.603 130.013 201.345 130.38 204.907C130.568 206.747 130.37 208.909 130.2 211.072C129.958 212.459 130 213.591 130.325 214.025C130.552 214.333 130.711 214.484 131.039 214.676C131.362 214.861 131.901 215.047 132.63 215.143C134.106 215.346 136.098 215.163 138.373 214.77L138.255 214.799C147.269 213.033 156.537 211.194 165.655 208.392C168.841 207.409 171.913 206.158 174.985 205.211C174.991 205.207 175.009 205.202 175.015 205.198C175.744 204.981 176.468 204.793 177.207 204.635C179.274 204.2 180.53 203.182 183.024 204.167C183.308 204.278 184.709 205.278 184.884 205.643C185.126 206.146 185.314 206.606 185.455 207.029C185.455 207.029 185.455 207.029 185.455 207.029C186.374 209.797 185.324 211.015 184.879 212.79C183.136 213.787 181.326 214.752 179.399 215.704L179.512 215.656C171.241 219.801 162.224 221.962 153.765 224.868C149.869 225.787 145.784 226.728 141.562 227.662C141.518 227.666 141.394 227.711 141.35 227.713C137.868 228.3 133.319 229.57 126.972 227.531C123.833 226.5 120.5 223.863 118.797 220.898C117.032 217.944 116.449 215.129 116.164 212.651C114.617 198.299 113.158 183.523 111.948 170.166C110.257 169.153 111.169 167.229 111.805 166.016C112.261 165.14 111.599 165.197 111.773 164.878C111.864 164.731 113.242 163.856 113.334 163.703C113.509 163.398 113.133 162.885 113.308 162.57C113.428 162.372 116.022 161.003 116.455 160.629C116.664 160.456 116.302 160.143 116.447 160.064C116.447 160.062 116.447 160.059 116.447 160.057C116.593 159.985 117.892 160.108 118.037 160.036C118.697 159.717 118.189 159.398 120.809 158.519C121.667 158.237 123.621 157.24 124.781 157.419C125.728 157.522 126.289 158.763 127.577 159.011C125.888 159.454 128.867 160.144 129.191 160.79C129.448 161.298 129.01 162.048 129.226 162.59C129.303 162.81 130.857 164.265 130.86 164.357Z" fill="white"/>
<path d="M124.549 179.281C124.568 179.282 124.673 180.55 124.891 180.076C125.255 179.28 126.036 179.82 126.52 180.076C126.711 180.178 126.899 180.285 127.092 180.396C128.43 181.181 129.719 182.127 131.056 182.442C131.982 182.656 133.044 182.405 133.831 182.378C134.614 182.352 135.701 183.893 136.457 183.842C136.942 183.81 137.426 183.817 137.899 183.848C140.184 184.059 142.451 184.663 145.346 184.153C146.278 184.001 147.105 183.528 148.204 183.805C148.788 183.948 148.889 183.345 150.014 184.746C150.142 184.905 150.924 186.082 151.098 186.444C151.338 186.943 151.546 187.392 151.727 187.8C151.727 187.8 151.727 187.8 151.727 187.8C152.91 190.465 152.942 191.357 153.318 192.859C151.667 195.497 148.653 195.326 145.504 196.782C143.538 197.013 141.128 197.191 139.207 197.204C134.846 197.244 130.788 197.412 127.092 198.097C126.636 198.182 126.191 198.275 125.75 198.375C125.508 200.024 125.079 199.046 124.807 198.375C124.615 197.893 124.622 198.557 124.55 198.375C124.512 198.28 124.33 196.88 124.294 196.784C124.219 196.602 124.11 196.967 124.036 196.784C123.988 196.66 123.692 194.041 123.608 193.603C123.567 193.392 123.496 193.749 123.479 193.603C123.479 193.603 123.478 193.603 123.478 193.603C123.462 193.456 123.493 192.159 123.478 192.013C123.407 191.349 123.333 191.852 123.135 189.225C123.07 188.364 122.842 186.409 122.878 185.249C122.908 184.3 123.2 183.746 123.264 182.462C123.361 184.154 123.536 181.185 123.692 180.871C123.815 180.623 123.989 181.075 124.12 180.871C124.169 180.798 124.523 179.281 124.549 179.281Z" fill="white"/>
<path d="M127.555 157.803C127.577 157.8 127.967 159.014 128.14 158.493C128.429 157.621 129.538 157.924 130.244 158.015C132.467 158.329 134.853 158.912 137.126 158.66C138.504 158.504 139.983 157.831 141.137 157.481C142.289 157.132 144.26 158.184 145.39 157.823C146.524 157.462 147.699 157.192 148.901 156.972C151.094 156.566 153.384 156.346 155.689 156.085C157.102 155.942 157.911 155.898 159.016 155.379C160.073 154.882 160.928 153.932 162.299 153.502C163.028 153.266 162.961 152.582 164.714 153.218C164.911 153.293 166.193 153.942 166.51 154.188C166.946 154.531 167.328 154.845 167.666 155.137C167.666 155.137 167.666 155.137 167.666 155.137C169.872 157.044 170.165 157.973 170.999 159.328C170.314 161.257 169 162.887 166.971 164.467C165.132 166.025 161.367 167.598 159.688 168.084C159.283 168.23 158.884 168.392 158.495 168.577C156.776 168.837 154.972 169.199 153.126 169.648C146.604 171.239 139.721 173.612 133.309 176.091C133.298 177.786 132.376 176.989 131.796 176.424C131.388 176.017 131.528 176.666 131.373 176.511C131.29 176.431 130.716 175.119 130.639 175.036C130.482 174.882 130.367 175.275 130.212 175.119C130.107 175.013 129.139 172.528 128.939 172.118C128.84 171.921 128.783 172.293 128.731 172.154C128.73 172.154 128.729 172.154 128.728 172.154C128.678 172.014 128.511 170.726 128.461 170.587C128.239 169.951 128.197 170.469 127.494 167.92C127.255 167.087 126.673 165.195 126.561 164.039C126.46 163.096 126.737 162.494 126.602 161.214C126.987 162.866 126.72 159.9 126.833 159.561C126.931 159.291 127.223 159.697 127.344 159.466C127.393 159.382 127.526 157.809 127.555 157.803Z" fill="white"/>
<path d="M207.28 127.897C207.279 127.985 206.015 128.568 206.497 129.693C207.305 131.598 206.801 135.683 206.573 138.233C205.835 146.345 204.77 154.267 204.544 162.554C204.41 167.595 204.76 173.448 204.862 177.856C204.933 180.96 204.24 184.69 203.863 188.158C203.701 189.549 203.626 190.867 203.722 192.013C203.864 194.093 204.331 196.486 204.583 196.911C204.615 196.994 204.521 196.846 204.264 196.689C204.011 196.528 203.725 196.492 203.781 196.526C203.881 196.611 204.938 196.602 206.103 196.486L205.827 196.531C217.907 194.749 230.31 193.051 242.709 190.27C247.242 189.259 251.672 187.898 256.111 187.183L256.018 187.212C256.382 187.137 256.734 187.07 257.078 187.006C259.436 186.559 260.581 185.364 263.567 185.567C263.905 185.593 265.704 186.088 265.983 186.382C266.362 186.795 266.671 187.184 266.918 187.555C266.918 187.555 266.918 187.555 266.918 187.555C268.531 189.984 267.491 191.678 266.826 193.825C264.861 195.359 261.701 196.965 259.537 197.768C259.46 197.783 259.239 197.874 259.16 197.885C248.795 201.644 237.098 203.811 226.155 206.611C220.497 207.59 214.521 208.603 208.332 209.628C208.235 209.634 207.952 209.706 207.855 209.706C206.209 209.742 204.146 210.634 199.319 209.126C196.947 208.31 194.665 206.307 193.561 204.598C192.4 202.876 191.893 201.424 191.509 200.177C190.195 195.313 190.277 192.044 190.143 188.516C189.785 170.257 189.119 151.303 188.235 134.363C186.575 133.109 187.534 130.807 188.195 129.393C188.669 128.343 188.006 128.405 188.186 128.027C188.28 127.858 189.673 126.835 189.768 126.656C189.948 126.297 189.58 125.669 189.761 125.298C189.883 125.066 192.496 123.473 192.932 123.02C193.143 122.81 192.784 122.44 192.93 122.343C192.93 122.34 192.93 122.337 192.93 122.334C193.076 122.248 194.374 122.415 194.52 122.329C195.183 121.945 194.678 121.563 197.303 120.513C198.163 120.194 200.118 118.949 201.278 119.172C202.226 119.293 202.782 120.87 204.067 121.176C202.376 121.727 205.349 122.592 205.666 123.418C205.916 124.051 205.468 124.981 205.676 125.657C205.751 125.933 207.279 127.772 207.28 127.897Z" fill="white"/>
<path d="M257.111 238.833C257.172 239.032 256.268 240.679 257.525 242.876C258.263 244.143 259.172 246.081 259.899 247.187C260.064 247.497 260.149 247.246 258.959 246.582C258.403 246.285 257.456 246.022 256.694 246.026C255.919 246.016 255.382 246.187 255.151 246.291C254.695 246.523 255.13 246.42 255.611 246.066C256.102 245.728 256.702 245.212 257.275 244.651C269.362 231.728 277.8 212.226 292.677 194.346C292.866 194.142 293.053 193.94 293.24 193.74C295.682 191.106 298.272 188.401 300.762 185.743C301.995 184.421 303.214 183.097 304.232 181.869C304.74 181.258 305.191 180.672 305.51 180.193C305.83 179.733 305.984 179.323 305.891 179.557C305.812 179.74 305.635 180.763 306.062 181.772C306.481 182.771 307.016 183.096 307.037 183.123C307.114 183.142 306.109 182.718 305.074 182.512C302.907 182.037 300.242 181.806 297.784 181.643C293.616 181.342 288.935 181.149 283.348 180.313C275.125 178.959 266.772 176.586 259.978 174.534C258.348 174.05 256.73 173.536 255.124 172.996C254.197 172.679 253.145 172.348 251.853 171.755C250.627 171.118 248.736 170.372 247.19 167.609C243.109 159.867 247.331 151.747 250.889 147.333C254.682 142.524 259.043 138.849 263.483 135.401C272.099 128.629 282.836 122.802 289.807 117.135L288.747 119.8C288.686 120.283 289.082 121.459 289.552 121.879C289.996 122.333 290.187 122.357 290.211 122.372C290.253 122.368 289.881 122.233 289.493 122.148C288.684 121.96 287.641 121.817 286.612 121.7C284.51 121.468 282.322 121.32 280.104 121.19C265.088 120.407 249.684 120.151 234.243 119.876C233.243 119.86 232.245 119.846 231.245 119.833L234.03 117.314C232.668 129.272 231.511 141.199 229.729 152.495C228.715 158.919 228.762 163.55 226.396 169.719C226.127 170.422 224.421 173.459 224.005 173.579C223.432 173.745 222.93 173.797 222.486 173.752C222.486 173.752 222.486 173.752 222.486 173.752C219.584 173.459 219.197 169.041 218.034 165.368C218.808 149.232 220.36 132.718 222.096 116.112C222.807 111.48 226.564 107.595 231.245 107.839C247.614 107.927 263.942 108.029 280.544 108.362C282.367 108.411 284.184 108.469 286.09 108.574C287.579 108.704 289.071 108.841 290.927 109.149C291.883 109.324 292.854 109.472 294.507 110.044C295.361 110.384 296.399 110.683 298.169 112.099C299.964 113.247 302.143 117.618 301.802 120.09C301.687 121.639 300.593 124.796 299.494 125.892C288.652 135.197 280.992 138.501 272.576 145.181C268.556 148.263 264.684 151.591 261.922 154.981C260.557 156.647 259.541 158.356 259.171 159.512C258.977 160.096 258.938 160.481 258.943 160.72C258.953 160.964 258.972 161.101 259.121 161.419C258.574 160.384 257.949 159.883 257.684 159.685C257.399 159.482 257.373 159.501 257.486 159.552C257.726 159.675 258.456 159.943 259.373 160.249C267.675 163.09 276.096 164.99 284.954 165.969C289.302 166.421 294.908 166.39 300.584 166.851C303.489 167.107 306.418 167.366 310.037 168.365C311.853 168.941 313.94 169.477 316.702 171.756C318.059 172.915 319.634 174.88 320.307 177.406C320.992 179.921 320.671 182.218 320.164 183.886C318.606 188.312 316.964 189.728 315.572 191.561C314.155 193.255 312.814 194.707 311.499 196.136C308.878 198.969 306.375 201.657 303.954 204.41C297.336 212.353 291.49 223.931 285.452 234.43C282.398 239.788 279.316 245.152 275.639 250.482C273.767 253.153 271.783 255.851 269.021 258.603C267.549 260.022 266.023 261.414 263.482 262.796C261.145 264.088 256.769 265.492 252.267 263.974C248.171 263.329 244.904 260.237 243.303 257.646C240.959 253.943 240.278 250.301 239.829 247.668C239.38 244.67 238.827 245.003 238.699 243.89C238.629 243.316 239.324 240.34 239.307 239.804C239.241 238.723 238.547 237.226 238.521 236.148C238.481 235.399 240.332 230.797 240.616 229.58C240.741 228.985 240.25 228.026 240.366 227.781C240.365 227.774 240.364 227.766 240.363 227.759C240.48 227.522 241.824 227.788 241.94 227.553C242.477 226.487 241.819 225.487 244.21 222.559C244.968 221.564 246.843 218.557 248.026 219.072C248.932 219.349 249.71 222.952 251.097 223.624C249.532 225.018 252.757 226.915 253.372 228.777C253.853 230.264 253.801 232.516 254.342 234.089C254.517 234.7 257.014 238.59 257.111 238.833Z" fill="white"/>
<path d="M335.115 141.025C335.122 141.197 333.896 142.247 334.474 144.246C335.431 147.591 335.378 154.823 335.594 159.26C335.843 165.509 336.453 173.163 337.495 176.513C337.526 176.708 337.469 176.684 337.33 176.641C337.196 176.592 337.031 176.593 337.118 176.687C337.266 176.888 338.43 177.149 339.882 177.107C342.864 177.048 346.695 176.27 350.594 175.429C357.365 173.933 365.549 171.938 373.184 171.525C374.968 171.415 376.365 171.185 378.069 170.807C378.941 170.62 380.063 170.372 381.46 170.207C382.405 170.11 382.903 170.068 382.889 170.108C382.902 170.131 382.216 170.474 381.869 170.973C381.513 171.462 381.572 171.7 381.678 171.547C381.788 171.409 381.934 171.001 382.036 170.495C382.787 165.852 383.353 161.187 383.283 157.228C383.504 140.212 377.973 123.242 376.998 103.976C376.99 103.467 376.905 103.078 376.887 102.99C376.844 102.89 377.092 103.159 377.225 103.163C377.492 103.114 376.233 102.964 374.987 103.295L375.717 103.015C366.629 107.281 357.558 112.056 348.539 117.046C340.575 121.469 332.844 126.254 325.173 130.287C324.248 130.772 323.342 131.309 322.555 131.786C322.522 131.811 322.413 131.867 322.378 131.888C322.286 131.933 322.199 131.974 322.069 132.024C322.027 132.039 322.039 132.038 321.891 132.084C321.758 132.115 321.616 132.183 321.177 132.164C320.959 132.145 320.615 132.1 320.205 131.814C319.993 131.675 319.685 131.331 319.56 131.008C319.421 130.678 319.401 130.372 319.415 130.15C319.453 129.702 319.568 129.513 319.636 129.371C319.704 129.241 319.785 129.131 319.797 129.115C320.081 128.76 320.141 128.748 320.252 128.642C320.442 128.478 320.605 128.349 320.76 128.228C321.081 127.979 321.381 127.757 321.694 127.532C322.305 127.093 322.919 126.681 323.56 126.296C324.841 125.525 326.246 124.864 327.969 124.303C328.231 124.211 328.99 124.11 329.773 123.946C329.872 123.923 329.959 123.912 330.071 123.871C330.178 123.832 330.26 123.826 330.4 123.724C330.431 123.702 330.464 123.677 330.497 123.646C330.527 123.617 330.57 123.583 330.631 123.443C330.68 123.32 330.759 123.081 330.625 122.752C330.475 122.387 330.098 122.22 329.923 122.189C329.829 122.168 329.742 122.163 329.695 122.159C329.665 122.154 329.638 122.15 329.612 122.147C329.561 122.141 329.516 122.136 329.473 122.133C329.39 122.126 329.31 122.124 329.249 122.119C329.072 122.077 328.892 122.059 328.779 122.024C328.676 121.986 328.598 121.95 328.562 121.911C328.162 121.487 327.843 121.094 327.646 120.693C327.646 120.693 327.646 120.693 327.646 120.693C327.362 120.026 327.175 119.424 327.694 118.657C327.772 118.558 327.864 118.456 327.989 118.35C328.163 118.231 328.46 118.061 329.048 117.92C329.124 117.903 329.206 117.887 329.297 117.872C329.411 117.857 329.402 117.843 329.722 117.831C330.235 117.825 330.994 117.816 332.131 118.333C333.248 118.767 334.677 120.371 334.973 121.651C335.36 122.989 335.182 123.971 335.036 124.592C334.633 125.935 334.534 125.899 334.409 126.206C334.289 126.445 334.189 126.623 334.102 126.778C333.938 127.069 333.9 127.185 333.813 127.358C333.73 127.523 333.675 127.651 333.631 127.766C333.535 128.004 333.44 128.225 333.369 128.419C332.772 129.977 332.037 131.297 331.489 132.705C330.63 133.489 329.778 134.248 328.957 134.98C328.545 135.347 328.14 135.707 327.784 136.034C327.601 136.201 327.431 136.361 327.352 136.449C327.325 136.479 327.281 136.539 327.52 136.319C327.612 136.227 327.758 136.093 328.054 135.739C328.129 135.649 328.215 135.541 328.317 135.404C328.354 135.354 328.333 135.385 328.43 135.248C328.507 135.139 328.592 135.014 328.687 134.861C328.877 134.554 329.114 134.157 329.387 133.483C329.643 132.803 330.01 131.833 330.003 130.128C330.034 128.489 329.231 125.791 327.413 124.076C324.242 121.275 322.229 121.668 321.113 121.575C319.975 121.615 319.442 121.776 319.029 121.88C318.828 121.935 318.67 121.986 318.537 122.031C318.383 122.084 318.408 122.076 318.348 122.098C318.175 122.161 318.051 122.212 317.95 122.254C317.752 122.339 317.647 122.39 317.576 122.424L316.762 122.893C333.419 111.125 351.52 101.379 369.927 91.6302C370.281 91.4818 371.305 91.0286 371.683 90.9569C374.119 90.5074 377.211 88.9532 383.276 91.6504C385.901 92.9957 387.965 95.6473 388.802 97.7224C389.699 99.8448 389.9 101.515 390.007 102.956C390.939 121.424 399.095 146.582 396.236 171.49C395.959 173.742 396.002 176.71 392.825 180.652C391.226 182.552 388.713 183.849 387.002 184.3C385.255 184.79 384.112 184.853 383.601 184.942C382.121 185.177 377.449 186.359 373.964 186.445C367.292 186.802 360.427 188.491 352.994 190.391C349.219 191.307 345.401 192.383 340.423 192.788C337.938 192.935 334.93 192.994 331.326 191.676C327.668 190.429 324.177 186.992 322.718 183.856C317.708 171.163 317.97 163.051 316.727 153.566C314.9 151.313 315.615 147.052 316.158 144.381C316.547 142.485 315.89 142.59 316.04 141.883C316.118 141.527 317.443 139.679 317.526 139.328C317.68 138.6 317.279 137.563 317.438 136.834C317.543 136.342 320.081 133.439 320.504 132.608C320.706 132.213 320.335 131.536 320.478 131.368C320.478 131.363 320.478 131.358 320.478 131.353C320.621 131.198 321.925 131.477 322.068 131.322C322.719 130.625 322.2 129.92 324.808 128.007C325.66 127.376 327.611 125.217 328.772 125.568C329.717 125.81 330.289 128.595 331.584 129.143C329.904 130.094 332.901 131.662 333.251 133.111C333.526 134.238 333.122 135.879 333.369 137.103C333.454 137.543 335.102 140.799 335.115 141.025Z" fill="white"/>
<path d="M424.16 125.431C424.161 125.518 422.914 126.121 423.432 127.197C424.298 129.015 423.963 133.015 423.872 135.498C423.7 139.808 423.49 144.083 423.433 148.394C423.366 148.784 423.353 149.006 423.222 148.914C423.109 148.843 422.722 148.376 422.237 148.141C421.756 147.894 421.479 147.967 421.671 148.058C421.845 148.152 422.364 148.232 423.053 148.235C423.414 148.238 423.831 148.222 424.304 148.194C428.781 147.93 433.685 147.098 437.457 146.478C441.629 145.813 447.357 146.288 451.443 145.331C456.023 144.273 460.668 143.181 465.415 142.083C466.459 141.85 467.325 141.618 467.771 141.441C468.234 141.24 468.189 141.319 468.351 141.19C472.26 135.167 468.836 124.48 466.096 114.584C465.278 111.492 464.388 108.312 464.22 104.91L464.234 105.032C464.103 103.38 463.78 101.658 463.619 99.7553C463.577 99.2374 463.516 98.7436 463.462 98.2598C463.226 96.2049 463.268 95.3444 463.531 93.1009C463.616 92.8056 463.867 90.9176 464.057 90.5656C464.389 90.1107 464.704 89.7259 465.022 89.4138C465.022 89.4138 465.023 89.4137 465.023 89.4137C467.003 87.2855 469.749 88.708 472.242 90.999C473.451 93.5968 473.7 95.8155 473.968 96.4827C474.354 97.7125 475.285 100.224 475.807 103.406C475.808 103.495 475.862 103.756 475.858 103.844C476.649 110.233 481.236 119.779 483.059 131.794C483.364 136.249 482.958 141.955 480.1 147.212C478.786 149.858 476.073 152.185 473.965 153.18C471.823 154.245 470.225 154.604 468.965 154.938C455.615 158.354 440.56 161.662 425.646 163.152C423.375 163.258 420.082 164.147 414.9 161.826C412.365 160.636 410.044 158.146 408.968 155.896C407.835 153.625 407.477 151.666 407.273 149.963C406.543 144.012 405.911 138.189 405.368 132.553C403.65 131.342 404.516 128.984 405.13 127.502C405.571 126.447 404.91 126.515 405.078 126.127C405.165 125.912 406.531 124.9 406.62 124.69C406.79 124.299 406.408 123.703 406.58 123.317C406.695 123.033 409.276 121.41 409.706 120.953C409.913 120.738 409.549 120.35 409.693 120.268C409.693 120.265 409.693 120.262 409.693 120.259C409.839 120.177 411.139 120.316 411.283 120.233C411.941 119.838 411.431 119.46 414.047 118.392C414.904 118.044 416.857 116.852 418.018 117.05C418.965 117.2 419.528 118.674 420.817 118.987C419.131 119.508 422.114 120.355 422.444 121.13C422.705 121.735 422.276 122.654 422.499 123.302C422.578 123.559 424.153 125.29 424.16 125.431Z" fill="white"/>
<path d="M513.232 104.182C513.231 104.229 511.963 104.492 512.437 105.031C513.233 105.934 512.693 107.863 512.437 109.066C511.613 112.889 510.43 116.624 510.051 120.529C509.825 122.9 510.051 125.668 510.051 127.747C510.051 129.825 508.461 132.516 508.461 134.54C508.461 142.497 506.827 150.729 506.075 159.163C505.864 161.54 505.972 163.915 505.279 166.169C504.914 167.352 505.425 168.191 503.689 169.353C503.492 169.486 502.099 170.068 501.697 170.097C501.144 170.137 500.649 170.156 500.203 170.156C500.203 170.156 500.203 170.156 500.203 170.156C497.287 170.156 496.458 169.362 494.933 168.717C493.168 162.589 494.598 156.101 494.138 149.824C495.452 137.115 495.386 120.739 494.138 107.158C492.489 106.557 493.467 105.496 494.138 104.823C494.62 104.344 493.956 104.365 494.138 104.186C494.233 104.094 495.633 103.641 495.729 103.55C495.911 103.369 495.546 103.094 495.729 102.913C495.853 102.79 498.472 102.06 498.91 101.852C499.121 101.751 498.764 101.574 498.91 101.533C498.91 101.532 498.91 101.53 498.91 101.529C499.057 101.49 500.354 101.568 500.5 101.529C501.164 101.352 500.661 101.171 503.288 100.68C504.149 100.519 506.104 99.9542 507.264 100.044C508.213 100.116 508.767 100.842 510.051 101C508.359 101.239 511.328 101.675 511.642 102.06C511.89 102.364 511.438 102.796 511.642 103.121C511.715 103.24 513.232 104.12 513.232 104.182Z" fill="white"/>
<path d="M494.389 79.1235C494.564 79.0688 495.825 79.9978 497.571 78.9295C500.437 77.1598 507.427 75.4016 511.865 74.2932C517.515 72.8856 523.215 71.6116 529.283 70.7316C532.327 70.3043 535.445 69.9586 538.917 69.9528C542.384 70.1286 546.294 69.7326 551.635 73.3226C555.23 76.1639 557.589 79.6137 558.835 84.1982C558.966 84.7195 559.078 85.2685 559.162 85.8626C560.196 100.499 549.97 108.039 544.748 113.417C538.74 118.951 529.368 123.629 524.59 128.211C524.392 128.404 524.208 128.59 524.038 128.767C520.527 132.284 516.697 135.651 516.75 136.707C516.785 136.594 516.72 135.969 516.543 135.716C516.381 135.454 516.381 135.576 516.636 135.783C517.132 136.219 518.316 136.857 519.509 137.365C522.031 138.443 524.91 139.353 527.85 140.256C533.767 142.048 539.866 143.758 545.99 145.619C558.226 149.31 570.532 153.521 582.715 158.254C587.936 160.279 593.163 162.295 598.209 164.532C598.231 164.539 598.295 164.571 598.317 164.579C601.152 165.998 603.903 167.464 606.538 169.074C608.704 170.387 610.649 171.399 612.331 172.52C613.557 173.321 615.2 174.356 616.222 176.162C616.582 176.644 616.955 179.125 616.635 179.429C616.282 179.876 615.921 180.22 615.566 180.491C615.566 180.491 615.566 180.491 615.566 180.491C614.401 181.368 613.325 181.492 612.434 181.682C611.519 181.85 610.921 182.143 610.025 182.522C609.592 182.361 608.847 182.098 607.757 181.623C602.482 179.154 598.403 177.381 593.407 175.169L593.796 175.338C578.365 169.339 562.591 163.397 546.457 159.367C540.295 157.489 533.891 155.734 527.051 153.809C523.603 152.82 520.185 151.871 516.243 150.423C514.282 149.666 512.282 148.925 509.668 147.251C508.33 146.332 506.85 145.31 505.264 142.957C503.668 140.71 502.947 136.865 503.556 134.256C506.666 123.906 512.012 122.582 514.343 119.478C521.794 112.306 528.516 108.05 534.526 102.497C540.464 97.4327 545.262 90.3214 544.273 88.1436C544.287 88.1942 544.056 87.5161 543.712 87.0484C543.371 86.5474 542.936 86.126 542.567 85.8852C543.292 86.347 542.748 85.9803 541.799 85.9653C540.855 85.9038 539.491 85.9683 538.14 86.1307C535.334 86.4631 532.257 87.1458 529.188 87.9533C523.019 89.5886 516.812 91.7194 510.717 93.8752C509.137 96.1242 505.113 96.4258 502.505 96.5678C500.64 96.6669 500.942 97.2652 500.227 97.3036C499.853 97.3246 497.831 96.4969 497.446 96.5156C496.719 96.5517 495.865 97.1959 495.114 97.2302C494.617 97.2559 491.196 95.517 490.289 95.293C489.847 95.1918 489.277 95.704 489.093 95.5985C489.088 95.5998 489.083 95.601 489.078 95.6022C488.902 95.4943 488.873 94.1649 488.698 94.0579C487.869 93.5711 487.224 94.271 484.97 91.9987C484.091 91.3021 482.262 89.4422 482.623 88.2536C482.61 87.3577 484.496 86.5533 484.764 85.1591C485.836 86.6714 486.556 83.4471 487.723 82.7989C488.624 82.2975 490.191 82.3108 491.257 81.7715C491.614 81.592 494.171 79.1975 494.389 79.1235Z" fill="white"/>
<path d="M572.056 114.469C572.062 114.247 573.35 113.033 572.926 110.492C572.211 106.227 572.974 97.1627 573.408 91.5229C573.638 88.5288 573.885 85.5448 574.144 82.5624C574.3 80.7802 574.446 79.0144 575.052 76.5538C575.419 75.2945 575.715 73.8058 577.332 71.4792C578.164 70.3276 579.611 68.8627 581.655 67.9906C583.687 67.099 585.821 67.0615 587.203 67.2761C592.483 68.4599 593.257 70.0349 594.934 71.1838C596.396 72.4059 597.553 73.5314 598.705 74.6674C605.159 81.0957 611.28 87.7643 617.485 94.539C625.084 102.819 633.943 112.405 640.35 119.816C646.776 127.218 653.677 137.935 659.686 145.295C660.786 146.64 661.889 147.998 662.976 149.348C664.468 151.2 665.942 153.068 667.387 154.897C668.114 155.816 668.837 156.732 669.507 157.532C669.83 157.92 670.18 158.309 670.302 158.429C670.323 158.452 670.33 158.455 670.248 158.394C670.161 158.34 670.027 158.204 669.454 157.962C669.153 157.844 668.691 157.685 667.997 157.649C667.272 157.601 666.289 157.797 665.569 158.196C664.103 159.056 663.917 159.748 663.745 159.993C663.45 160.598 663.492 160.726 663.484 160.728C663.49 160.727 663.509 160.588 663.517 160.426C663.536 160.082 663.528 159.595 663.502 159.092C663.448 158.068 663.328 156.932 663.184 155.78C662.893 153.477 662.507 151.097 662.095 148.717C661.258 143.918 660.311 139.113 659.317 134.237C654.949 113.1 650.14 91.5027 645.099 69.7067C643.43 62.5111 641.619 55.3254 640.077 48.289C639.291 44.7005 638.582 41.1699 637.991 37.6868C637.028 32.2178 635.794 28.4754 635.959 22.8986C636.021 22.2883 636.228 19.1871 636.48 18.868C636.892 18.4483 637.292 18.1416 637.692 17.944C637.692 17.944 637.692 17.944 637.692 17.9439C640.26 16.3956 643.109 20.8023 645.241 23.5506C647.565 31.0506 649.412 38.0991 651.374 45.5071C656.883 66.3939 661.771 88.1634 667.307 109.218C668.887 116.314 670.542 123.688 672.17 131.281C673.191 136.06 674.195 140.887 675.122 145.91C675.584 148.434 676.024 150.966 676.397 153.68C676.579 155.03 676.752 156.445 676.858 158.015C676.909 158.814 676.951 159.648 676.922 160.727C676.776 161.906 677.173 162.819 675.614 166.249C675.15 166.988 674.623 168.412 671.968 169.99C670.668 170.73 668.883 171.126 667.503 171.058C666.16 171.011 665.19 170.701 664.514 170.44C662.01 169.317 661.801 168.762 661.202 168.298C660.255 167.4 659.835 166.878 659.351 166.32C658.442 165.246 657.706 164.313 656.948 163.361C655.462 161.486 654.02 159.658 652.542 157.817C632.571 133.075 610.774 107.408 587.74 86.82C586.689 85.896 585.668 85.0369 584.795 84.3949C584.372 84.0826 583.982 83.8318 583.811 83.7465C583.732 83.7049 583.707 83.708 583.856 83.7765C584.006 83.8369 584.328 83.9933 585.12 84.0947C585.872 84.1974 587.344 84.1458 588.731 83.4705C590.121 82.8108 590.95 81.8463 591.325 81.3022C591.719 80.7227 591.798 80.466 591.855 80.3409C591.901 80.2267 591.892 80.2522 591.877 80.3496C591.795 80.7816 591.694 81.9844 591.68 83.1898C591.559 89.2178 591.483 95.1377 591.448 100.952C593.023 103.787 591.933 108.712 591.203 111.816C590.679 114.05 591.345 113.95 591.148 114.785C591.046 115.198 589.611 117.287 589.509 117.716C589.313 118.558 589.659 119.852 589.466 120.672C589.333 121.26 586.672 124.613 586.226 125.585C586.01 126.048 586.36 126.886 586.212 127.072C586.212 127.078 586.212 127.084 586.212 127.09C586.063 127.268 584.769 126.898 584.622 127.077C583.951 127.898 584.446 128.721 581.807 131.022C580.941 131.768 578.981 134.408 577.822 133.998C576.871 133.661 576.33 130.218 575.052 129.477C576.752 128.357 573.799 126.298 573.505 124.476C573.272 123.036 573.75 121.008 573.567 119.485C573.5 118.924 572.05 114.741 572.056 114.469Z" fill="white"/>
<path d="M689.679 44.1617C689.679 44.2722 688.42 44.9411 688.913 46.2346C689.74 48.4287 689.285 53.0996 689.096 56.0378C688.478 65.3478 687.579 74.474 687.573 84.0082C687.572 88.4083 687.876 93.3531 688.134 97.6958C688.207 98.8962 688.321 99.992 688.458 100.928C688.651 102.417 688.909 104.053 688.921 104.534C688.909 104.651 688.85 104.678 688.712 104.661C688.578 104.644 688.356 104.6 688.189 104.623C687.833 104.665 687.955 104.93 688.809 104.919C689.99 104.897 691.136 104.819 692.226 104.668C711.431 101.901 731.737 100.583 752.428 99.3782C753.903 99.292 755.379 99.1906 756.847 99.0933C756.854 99.092 756.873 99.0919 756.879 99.0907C760.728 98.907 764.552 98.2557 768.575 98.2499C768.902 98.251 769.227 98.2575 769.551 98.2693C772.551 98.3921 774.646 97.8589 777.505 99.5799C777.831 99.7751 779.254 101.167 779.325 101.569C779.425 102.123 779.47 102.618 779.47 103.064C779.47 103.064 779.47 103.064 779.47 103.064C779.472 105.981 777.516 106.804 776.04 108.345C773.795 108.648 771.679 108.924 769.693 109.267C766.507 109.819 762.222 110.678 757.778 110.992L757.885 110.983C748.996 111.754 739.929 112.38 731.114 113.752C718.68 114.74 705.128 116.507 690.464 118.413C688.701 118.665 684.558 118.848 681.106 116.637C677.669 114.463 676.21 111.594 675.31 109.458C673.622 105.082 673.432 101.716 673.211 98.3993C672.382 82.4142 671.532 66.4447 670.705 51.7464C669.028 50.3077 669.961 47.6693 670.609 45.9936C671.074 44.8412 670.41 44.8583 670.587 44.424C670.679 44.204 672.064 43.0629 672.157 42.8359C672.334 42.4021 671.962 41.7107 672.14 41.2688C672.261 41.0004 674.863 39.1296 675.297 38.6322C675.507 38.4095 675.146 37.9325 675.292 37.8419C675.292 37.8386 675.292 37.8354 675.292 37.8321C675.438 37.7367 676.737 37.9173 676.882 37.8214C677.543 37.4012 677.036 36.956 679.658 35.7384C680.517 35.3297 682.471 33.9382 683.632 34.1783C684.579 34.3354 685.138 36.088 686.425 36.4893C684.735 37.0346 687.712 38.1457 688.033 39.0351C688.287 39.7796 687.845 40.8223 688.058 41.6095C688.134 41.9151 689.677 44.0177 689.679 44.1617Z" fill="white"/>
<path d="M682.365 68.7724C682.395 68.7736 682.591 70.0396 682.944 69.5621C683.542 68.7611 684.855 69.2841 685.672 69.5258C688.273 70.3081 690.841 71.4305 693.516 71.7309C695.138 71.9094 697.021 71.6192 698.437 71.5662C699.852 71.514 701.753 73.0284 703.139 72.9672C703.909 72.9334 704.676 72.9311 705.462 72.9522L705.082 72.9843C708.436 72.8236 710.72 73.076 714.35 71.603C715.544 71.1602 716.79 70.7157 718.034 70.3079C719.713 69.7542 721.316 69.0218 723.07 69.1628C723.981 69.2419 724.411 68.5717 725.686 70.0035C725.833 70.165 726.604 71.3912 726.734 71.7719C726.914 72.2961 727.063 72.7682 727.186 73.1967C727.186 73.1968 727.186 73.1968 727.186 73.1969C727.989 75.9999 727.735 76.9358 727.81 78.5074C725.402 80.6902 723.078 81.003 720.519 82.3753C719.796 82.7575 718.805 83.3679 717.642 84.0617C714.032 85.4835 710.041 86.076 706.708 86.3151C706.589 86.282 706.211 86.4087 706.095 86.3669C699.025 86.3295 691.363 86.8687 684.631 87.8423C684.218 89.497 683.479 88.5282 682.985 87.8616C682.656 87.3833 682.66 88.0471 682.536 87.8658C682.469 87.7715 682.146 86.3744 682.075 86.2792C681.941 86.0979 681.768 86.4639 681.628 86.2824C681.539 86.159 681.007 83.5423 680.87 83.105C680.794 82.894 680.671 83.2517 680.643 83.1059C680.642 83.1059 680.641 83.1059 680.64 83.1059C680.613 82.9591 680.661 81.6614 680.634 81.5156C680.518 80.8521 680.385 81.3557 680.04 78.7297C679.931 77.869 679.537 75.9135 679.605 74.7534C679.65 73.8051 680.14 73.2503 680.246 71.966C680.406 73.6581 680.7 70.6874 680.951 70.3725C681.158 70.1235 681.442 70.5741 681.668 70.3683C681.74 70.2945 682.327 68.7728 682.365 68.7724Z" fill="white"/>
<path d="M684.292 32.6619C684.349 32.6634 684.645 33.931 685.252 33.4571C686.272 32.6618 688.449 33.2017 689.821 33.4571C691.686 33.8141 693.538 34.2382 695.409 34.6351C697.833 35.155 700.278 35.6281 702.788 35.841C705.46 36.0651 708.594 35.8334 710.941 35.8264C713.291 35.8198 716.333 37.3975 718.62 37.3839C725.524 37.3392 732.637 38.2521 739.834 38.8389C742.014 39.0102 744.161 39.1529 746.303 39.1733C748.932 39.1847 751.31 38.8191 753.528 38.6815C754.755 38.5789 755.2 37.7418 757.214 38.5232C757.439 38.6155 758.758 39.4173 759.012 39.7297C759.357 40.1651 759.649 40.565 759.896 40.9366C759.896 40.9367 759.896 40.9367 759.896 40.9368C761.505 43.3673 761.181 44.5854 761.141 46.3906C758.285 49.1804 752.887 50.7257 749.694 50.968C746.234 51.3355 743.216 51.2387 740.202 51.3086C738.835 51.3362 737.484 51.3884 736.14 51.502C723.925 50.6461 708.985 50.5232 695.409 51.2406C692.762 51.3804 690.159 51.5525 687.662 51.7561C686.981 53.405 685.775 52.4274 685.015 51.7561C684.473 51.2746 684.501 51.9385 684.296 51.7561C684.19 51.6612 683.677 50.2615 683.577 50.1658C683.369 49.9834 683.059 50.3482 682.856 50.1658C682.714 50.0417 681.892 47.4221 681.655 46.9844C681.543 46.773 681.341 47.1303 681.295 46.9844C681.294 46.9844 681.292 46.9844 681.29 46.9844C681.246 46.8375 681.335 45.5399 681.29 45.394C681.089 44.7302 680.885 45.2331 680.33 42.6066C680.148 41.7457 679.509 39.7901 679.61 38.63C679.692 37.6817 680.513 37.1272 680.691 35.8433C680.961 37.5357 681.457 34.566 681.892 34.2523C682.235 34.0042 682.727 34.4566 683.092 34.2523C683.224 34.1789 684.219 32.6619 684.292 32.6619Z" fill="white"/>
<path d="M612.751 38.7358C612.764 38.6639 614.063 38.5386 613.719 37.7595C613.13 36.4526 614.181 34.1268 614.816 32.7384C616.829 28.2928 619.489 24.4502 621.848 20.3523C623.271 17.8581 624.717 14.8204 626.116 12.6773C626.337 12.3353 626.607 12.0003 626.912 11.6726C628.53 9.90452 631.119 8.43775 632.659 6.87745C635.108 4.34908 638.381 2.16315 642.08 1.04992C642.44 0.790439 643.654 0.824255 644.09 0.739121C650.271 1.66998 655.684 3.94936 661.142 5.81639C661.445 5.92096 661.744 6.02358 662.04 6.12325C664.435 6.94316 666.847 7.25369 669.16 8.25827C670.376 8.78682 671.326 8.38256 672.397 10.2437C672.524 10.4557 673.006 11.9058 673.004 12.309C672.993 12.8644 672.965 13.3588 672.92 13.8026C672.92 13.8026 672.92 13.8027 672.92 13.8027C672.624 16.7037 671.651 17.4379 670.743 18.8712C666.851 19.443 662.14 18.7109 658.212 17.535C655.236 16.6917 652.386 15.8066 649.64 15.4687C647.518 14.8099 645.345 14.2737 643.265 13.9968L646.869 13.4397C644.395 14.055 641.628 16.347 639.207 19.9882C635.357 25.6705 632.866 32.784 632.117 39.0448C633.607 39.9327 632.47 40.638 631.709 41.1176C631.162 41.4596 631.824 41.539 631.618 41.6685C631.512 41.7321 630.069 41.9205 629.963 41.9908C629.759 42.1313 630.09 42.4192 629.891 42.5489C629.754 42.6338 627.079 43.0021 626.627 43.1763C626.408 43.2523 626.752 43.4434 626.603 43.4718C626.603 43.4731 626.603 43.4743 626.603 43.4756C626.454 43.502 625.165 43.3308 625.017 43.3582C624.342 43.5008 624.831 43.6592 622.185 44.0821C621.316 44.2004 619.353 44.8778 618.195 44.7745C617.242 44.6869 616.712 43.6746 615.446 43.3814C617.152 43.1537 614.228 42.3702 613.968 41.7944C613.76 41.3433 614.275 40.81 614.126 40.3642C614.069 40.2027 612.733 38.8278 612.751 38.7358Z" fill="white"/>
<path d="M111.505 50.2812C111.504 50.3169 110.681 50.4617 110.991 50.795C111.51 51.3333 111.166 52.5067 111.005 53.2306C110.486 55.5486 109.742 57.8209 109.527 60.1836C109.4 61.6227 109.573 63.2998 109.594 64.5563C109.615 65.8139 108.612 67.4627 108.637 68.6937C108.67 70.3795 108.578 72.0888 108.429 73.8194L108.424 73.7046C108.246 76.8754 108.107 79.8165 108.537 83.2959C108.546 83.3881 108.555 83.4814 108.563 83.5747C108.704 85.0509 108.828 86.4962 108.436 87.8299C108.215 88.5706 108.549 89.0878 107.421 89.7973C107.294 89.8783 106.388 90.2318 106.127 90.2497C105.767 90.2744 105.446 90.2857 105.156 90.2857C105.156 90.2857 105.156 90.2857 105.156 90.2857C103.26 90.2858 102.722 89.8008 101.73 89.4272C101.169 87.6773 101.05 86.1739 100.872 84.8757C100.662 83.4728 100.247 80.8596 99.8587 78.7726C99.8201 77.2836 99.8102 75.7648 99.8111 74.23C99.8208 74.1896 99.7912 74.0629 99.8023 74.0229C100.091 67.0503 99.816 59.0254 99.1033 52.1539C98.0292 51.7822 98.6612 51.1385 99.0957 50.7199C99.4074 50.4232 98.976 50.4494 99.0941 50.3329C99.1555 50.2726 100.064 49.992 100.126 49.9399C100.245 49.83 100.007 49.654 100.125 49.5481C100.205 49.4764 101.907 49.0294 102.191 48.8923C102.329 48.829 102.096 48.7269 102.191 48.7029C102.191 48.702 102.191 48.7011 102.191 48.7003C102.287 48.6748 103.13 48.7241 103.225 48.6986C103.656 48.5792 103.329 48.4805 105.036 48.1778C105.596 48.0724 106.867 47.7342 107.621 47.7925C108.237 47.8281 108.598 48.2679 109.432 48.3678C108.332 48.5086 110.263 48.7676 110.468 49.006C110.629 49.1801 110.336 49.4544 110.469 49.6418C110.517 49.7191 111.505 50.2369 111.505 50.2812Z" fill="#8FCBFF"/>
<path d="M95.0926 24.4805C95.1756 24.4857 95.5708 25.3284 96.4974 25.0707C98.0483 24.6335 101.267 25.2052 103.265 25.5493C109.637 26.6668 115.725 28.0937 122.358 29.9256C123.351 30.2094 124.386 30.5116 125.475 30.8814C127.583 31.601 130.459 32.501 132.859 34.3903C133.733 35.0724 134.501 35.8321 135.157 36.6678C136.406 38.2488 137.675 40.9779 136.995 44.1262C136.257 47.0502 134.679 49.5855 133.422 51.5203C127.947 59.7748 119.005 63.1492 113.218 68.2627L112.226 64.1699C116.39 65.8929 121.128 66.9225 125.933 67.8638C128.73 68.4126 131.58 68.8203 134.34 69.596C134.348 69.5969 134.371 69.6043 134.38 69.6054C135.362 69.9114 136.306 70.255 137.215 70.6179C139.016 71.3362 140.364 71.3089 142.009 72.766C142.194 72.9325 142.977 73.9894 142.985 74.2541C142.992 74.6202 142.97 74.9427 142.922 75.2285C142.922 75.2286 142.922 75.2286 142.922 75.2286C142.607 77.098 141.186 77.4056 139.864 78.1472C137.306 77.9209 134.691 77.3253 132.568 76.8783L132.715 76.9129C125.922 75.7002 117.808 74.783 109.417 72.0953C105.139 70.0491 103.497 65.5963 107.092 62.5028C107.287 62.2871 107.485 62.0763 107.685 61.8696C116.387 54.6021 126.655 50.0889 127.747 42.6999C127.696 43.0538 127.827 43.1763 127.695 42.9379C127.577 42.7213 127.242 42.3215 126.829 42.0063C126.009 41.343 124.54 40.7672 122.402 40.0985C115.424 38.0681 106.75 37.4621 99.2183 37.1614C98.1918 38.161 96.5557 37.4204 95.5095 36.929C94.7677 36.5764 94.781 37.0101 94.5006 36.8776C94.3556 36.8084 93.6887 35.8673 93.5377 35.7989C93.2494 35.6678 92.815 35.8878 92.5263 35.7586C92.3339 35.6698 91.2245 33.9303 90.8987 33.6385C90.7465 33.4971 90.4471 33.7224 90.3852 33.6263C90.383 33.6262 90.3809 33.6262 90.3787 33.6261C90.3181 33.5293 90.4624 32.6888 90.4014 32.5926C90.1219 32.1553 89.8328 32.4747 89.0545 30.7584C88.8015 30.1948 87.8665 28.9212 88.0166 28.1678C88.1268 27.5496 89.361 27.198 89.6424 26.3695C90.0313 27.4753 90.8103 25.5602 91.4629 25.3749C91.9917 25.2282 92.7013 25.5462 93.259 25.4352C93.4551 25.3935 94.9859 24.4739 95.0926 24.4805Z" fill="#8FCBFF"/>
<path d="M150.133 37.45C150.139 37.5053 149.363 37.9292 149.764 38.5362C150.429 39.5425 150.488 41.9328 150.627 43.4363C150.907 46.6818 151.207 49.9316 151.762 53.1833C152.237 55.6048 152.092 57.2993 152.254 58.4069C152.328 59.0284 152.464 59.3892 152.557 59.5292C152.896 60.1489 154.283 60.9359 155.452 61.2246C155.788 61.3181 156.143 61.4358 156.515 61.552C158.26 62.0668 160.642 62.5873 162.508 62.2544C165.523 61.7321 168.62 60.8145 171.587 59.546L169.859 62.4691C169.906 55.4089 169.916 48.1928 169.417 40.8399C169.26 38.3615 168.935 35.8894 168.98 33.4083L168.992 33.5212C168.967 32.9554 168.936 32.3905 168.906 31.8225C168.819 30.3235 168.191 29.4154 168.796 27.6277C168.864 27.4247 169.483 26.4155 169.718 26.2965C170.043 26.1323 170.34 26.0075 170.615 25.9159C170.615 25.9159 170.615 25.9158 170.615 25.9158C172.413 25.318 173.253 26.1213 174.476 26.7001C175.263 28.372 175.956 30.3656 176.339 32.4895C176.339 32.5761 176.389 32.8325 176.383 32.9188C177.202 38.7592 177.615 45.8572 178.296 52.3566C178.372 55.4598 178.441 58.7185 178.492 62.0896C178.305 64.0097 177.25 66.687 175.418 67.2912C169.534 69.9158 162.976 71.9404 155.271 71.0811C151.397 70.4846 147.438 69.0764 144.432 64.8385C141.716 60.2341 142.417 56.8878 141.863 55.9607C140.546 51.6388 139.412 47.3761 138.476 43.1974C137.273 42.566 137.658 40.9916 137.957 39.9945C138.171 39.285 137.749 39.3746 137.832 39.1069C137.876 38.9714 138.696 38.2186 138.744 38.0877C138.83 37.8205 138.551 37.4672 138.64 37.195C138.699 37.0078 140.293 35.8177 140.557 35.5133C140.683 35.3666 140.432 35.1296 140.523 35.0676C140.523 35.0658 140.523 35.0639 140.523 35.0621C140.614 35.0019 141.463 35.0491 141.554 34.9892C141.969 34.7305 141.62 34.4712 143.301 33.7569C143.848 33.5051 145.113 32.806 145.869 32.9238C146.481 32.9989 146.863 33.8107 147.709 33.949C146.624 34.2778 148.585 34.6736 148.826 35.0828C149.016 35.4161 148.775 35.9494 148.951 36.3223C149.012 36.458 150.121 37.3814 150.133 37.45Z" fill="#8FCBFF"/>
<path d="M195.621 20.183C195.62 20.2227 194.796 20.4093 195.104 20.8067C195.421 21.2165 195.412 21.9066 195.319 22.5862C195.29 22.669 195.255 22.8067 195.223 22.9636C195.19 23.0983 195.159 23.2496 195.136 23.3975C194.77 25.8447 194.381 28.7462 194.502 31.5855C194.583 33.324 195.005 35.3284 195.211 36.8375C195.418 38.3506 194.664 40.4704 194.862 41.9449C195.64 47.776 195.38 53.9706 195.432 60.264C195.444 62.0334 195.638 63.8023 195.261 65.5128C195.061 66.4069 195.412 67.018 194.294 67.9154C194.167 68.0177 193.264 68.4408 193.002 68.4586C192.642 68.4873 192.321 68.5 192.031 68.5C192.031 68.5 192.031 68.5 192.031 68.5C190.136 68.4976 189.597 67.972 188.597 67.5434C187.365 63.4469 187.833 58.7263 187.027 54.239C186.911 44.8362 184.802 33.9595 183.227 22.5862C183.221 22.5142 183.215 22.4433 183.21 22.3734C182.138 21.9354 182.774 21.1527 183.21 20.6572C183.523 20.2931 183.091 20.3258 183.21 20.1858C183.272 20.1145 184.181 19.7862 184.244 19.7157C184.362 19.5885 184.125 19.3766 184.244 19.2498C184.324 19.1538 186.027 18.6199 186.312 18.4663C186.449 18.3926 186.217 18.2605 186.312 18.2315C186.312 18.2305 186.312 18.2296 186.312 18.2286C186.407 18.2009 187.25 18.2565 187.345 18.2286C187.777 18.0974 187.45 17.9659 189.157 17.6049C188.446 17.634 187.278 18.112 186.5 18.0318C186.192 18.0053 185.948 17.8578 185.676 17.7027C185.609 17.6629 185.539 17.6271 185.466 17.5864C185.464 17.5852 185.462 17.5855 185.46 17.5836C185.459 17.5835 185.459 17.5835 185.459 17.5835C185.459 17.5835 185.459 17.5835 185.459 17.5835C185.459 17.5835 185.459 17.5835 185.459 17.5835C185.459 17.5835 185.459 17.5835 185.459 17.5835C185.459 17.5835 185.459 17.5835 185.459 17.5835C185.459 17.5835 185.459 17.5835 185.459 17.5835C185.459 17.5835 185.459 17.5835 185.459 17.5835C185.459 17.5835 185.459 17.5835 185.459 17.5835C187.9 17.5835 177.322 17.5835 192.783 17.5835C192.783 17.5835 192.783 17.5835 192.783 17.5835C192.783 17.5835 192.783 17.5835 192.783 17.5835C192.783 17.5835 192.783 17.5835 192.783 17.5835C192.783 17.5835 192.783 17.5835 192.783 17.5835C192.783 17.5835 192.783 17.5835 192.783 17.5835C192.783 17.5835 192.783 17.5835 192.783 17.5835C192.783 17.5835 192.783 17.5835 192.783 17.5835C192.783 17.5835 192.783 17.5836 192.784 17.5837C192.784 17.584 192.784 17.5845 192.784 17.5851C192.785 17.5867 192.786 17.5859 192.786 17.5863C192.787 17.5866 192.788 17.587 192.79 17.5874C192.794 17.5891 192.799 17.5912 192.803 17.5939C192.812 17.6005 192.822 17.6038 192.831 17.6079C192.85 17.6151 192.868 17.6303 192.887 17.636C192.926 17.6506 192.965 17.6754 193.005 17.688C193.166 17.7583 193.345 17.8124 193.553 17.8394C192.453 18.0143 194.383 18.3367 194.587 18.6195C194.749 18.8445 194.455 19.1636 194.587 19.4004C194.635 19.4972 195.621 20.1312 195.621 20.183Z" fill="#8FCBFF"/>
<path d="M194.833 7.06272C194.916 7.09847 195.058 8.05503 196.138 8.16884C197.94 8.36078 201.302 10.0771 203.451 11.0877C206.375 12.4724 209.285 13.8747 212.217 15.2793C213.68 16.1778 217.096 16.7041 219.718 20.8372C222.165 25.7352 220.263 29.0326 219.405 31.4248C217.133 36.4785 214.199 40.9978 212.224 44.5155C212.067 44.7875 211.902 45.0618 211.731 45.3385C211.625 45.4858 211.594 45.545 211.584 45.4209C211.578 45.3074 211.538 44.9309 211.377 44.6683C211.222 44.4015 211.061 44.3591 211.092 44.4659C211.114 44.5679 211.288 44.7735 211.541 44.9781C212.613 45.8416 214.576 46.607 216.237 46.975C219.772 47.8805 222.746 47.7577 227.83 49.8723C230.121 50.8579 230.15 53.3458 228.438 55.1593C218.65 63.2096 207.863 69.683 197.285 76.9581C194.514 78.8475 191.815 80.8291 189.113 82.651C189.112 82.6524 189.107 82.6558 189.105 82.6571C187.998 83.3944 186.893 84.0922 185.769 84.7417C183.724 85.9199 182.531 87.1679 179.984 87.5229C179.695 87.5641 178.234 87.4511 178.041 87.2658C177.774 87.011 177.565 86.7638 177.404 86.5226C177.404 86.5226 177.404 86.5225 177.404 86.5225C176.355 84.9434 177.363 83.6292 177.818 82.1157C180.007 80.2805 182.293 78.43 184.658 76.5961L184.627 76.6186C192.103 70.7447 200.286 65.5447 207.678 59.8267C212.602 56.4403 217.86 52.7353 222.673 48.6477L223.693 57.522C223.936 57.6329 223.69 57.5045 223.425 57.4265C223.143 57.3367 222.779 57.2392 222.376 57.1427C221.58 56.9525 220.677 56.7716 219.742 56.5892C217.86 56.2221 215.852 55.8567 213.734 55.3469C211.587 54.7919 209.412 54.3086 206.645 52.7126C205.322 51.8726 203.395 50.5855 202.378 47.6611C201.4 44.6681 202.471 41.9696 203.299 40.5404C205.184 37.215 207.159 34.0647 208.75 31.0736C209.535 29.5925 210.228 28.1157 210.586 26.9444C210.767 26.3678 210.842 25.8726 210.833 25.6974C210.824 25.4933 210.779 25.8078 211.003 26.1924C211.074 26.3277 211.183 26.4406 211.18 26.4469C211.181 26.4573 211.066 26.3837 210.83 26.2793C210.357 26.0614 209.458 25.7649 208.332 25.3578C204.023 23.7942 199.742 22.2868 195.579 20.7739C194.059 21.3247 192.297 19.9281 191.203 18.9987C190.418 18.3327 190.296 18.7479 190.002 18.4952C189.855 18.3665 189.355 17.1634 189.212 17.0332C188.915 16.7757 188.31 16.77 188.012 16.5077C187.816 16.3353 187.138 14.159 186.881 13.7199C186.749 13.5058 186.329 13.5631 186.288 13.438C186.286 13.4368 186.283 13.4356 186.281 13.4344C186.249 13.3133 186.761 12.6232 186.729 12.5028C186.595 11.9579 186.098 12.0867 186.01 10.119C185.966 9.47121 185.655 7.84131 186.189 7.27409C186.593 6.80385 187.913 7.10142 188.55 6.48066C188.452 7.66407 190.022 6.28075 190.751 6.39307C191.334 6.48618 191.944 7.08337 192.57 7.21313C192.789 7.26036 194.727 7.02008 194.833 7.06272Z" fill="#8FCBFF"/>
<path d="M233.503 5.01021C233.535 5.03316 233.278 5.84553 233.797 5.83244C234.703 5.82505 235.597 6.97331 236.091 7.61591C237.519 9.45072 238.514 11.3285 239.77 13.0256C239.93 13.2431 240.092 13.456 240.261 13.6663C241.16 14.7806 242.417 15.8739 243.274 16.7866C244.134 17.6991 244.463 19.5867 245.267 20.4904C247.57 23.0715 249.426 26.1627 251.2 29.3501L251.127 29.2577C251.786 30.3465 252.481 31.3507 253.329 32.2598C254.202 33.1982 255.288 33.8707 256.13 34.8991C256.583 35.4443 257.143 35.3753 257.212 36.6857C257.218 36.8337 257.11 37.7957 257.011 38.0378C256.87 38.37 256.736 38.6623 256.605 38.9211C256.605 38.9211 256.605 38.9212 256.605 38.9212C255.752 40.6141 255.053 40.864 254.2 41.5311C250.55 40.7869 247.135 37.4025 244.823 34.4951C244.801 34.4406 244.661 34.3202 244.641 34.2647C244.369 33.9098 244.082 33.562 243.778 33.2318C241.193 28.8658 237.134 24.0726 232.737 20.0589C231.034 18.504 229.259 17.0574 227.708 16.1233C226.827 16.7926 226.878 16.0371 226.919 15.5374C226.952 15.1807 226.72 15.5457 226.737 15.4153C226.748 15.3481 227.113 14.5027 227.116 14.4322C227.126 14.2998 226.94 14.4657 226.962 14.3425C226.987 14.2629 227.607 12.6667 227.649 12.3762C227.678 12.2388 227.554 12.4391 227.583 12.3488C227.583 12.3487 227.582 12.3486 227.582 12.3485C227.608 12.2561 227.93 11.4764 227.954 11.3839C228.022 10.9529 227.981 11.266 228.125 9.547C228.139 9.26392 228.101 8.78883 227.992 8.29531C227.884 7.80028 227.689 7.29604 227.76 6.91885C227.903 6.26747 229.11 6.08563 229.523 5.36795C229.515 6.50594 230.64 4.86528 231.17 4.8855C231.559 4.88631 231.821 5.35706 232.143 5.38934C232.267 5.39922 233.456 4.97491 233.503 5.01021Z" fill="#8FCBFF"/>
<path d="M275.502 12.9578C275.477 13.0396 274.572 13.2337 274.603 14.1719C274.665 15.777 273.22 18.6281 272.255 20.3125C269.948 24.422 267.142 28.0459 264.071 31.4872C263.239 32.3916 262.441 33.3586 261.683 34.3865C259.762 36.9808 257.99 40.4274 256.62 43.0295C255.244 45.6199 252.597 48.629 251.274 51.268C250.482 52.8488 249.654 54.4349 248.781 56.0183C248.726 56.1671 248.435 56.5252 248.348 56.6574C241.907 63.827 235.278 71.5405 229.294 79.9278C229.062 80.2545 228.832 80.5847 228.604 80.9171L228.624 80.8855C226.968 83.3938 225.49 86.0346 223.592 88.3103C222.467 89.6547 222.055 90.8753 220.159 91.6272C219.945 91.7124 218.72 91.8789 218.482 91.7618C218.154 91.6014 217.877 91.4368 217.64 91.2687C217.64 91.2686 217.64 91.2686 217.64 91.2686C216.1 90.1644 216.307 88.9439 215.985 87.6549C217.749 84.1756 219.6 80.6237 221.995 76.7993C222.01 76.78 222.045 76.7136 222.061 76.6947C224.824 72.4808 227.85 68.4081 230.647 64.2821C234.015 60.0688 237.649 55.5668 241.743 50.9543L241.04 51.99C245.56 43.7458 249.622 34.061 256.028 25.3134C258.83 21.4927 260.98 17.2779 262.359 13.1643C261.64 12.0645 262.666 11.0603 263.326 10.3766C263.801 9.88764 263.372 9.80213 263.548 9.61774C263.639 9.52824 264.663 9.22101 264.751 9.12056C264.921 8.93437 264.772 8.53779 264.934 8.35503C265.049 8.2298 266.896 7.6866 267.22 7.44612C267.377 7.34131 267.182 7.08178 267.283 7.0443C267.283 7.04263 267.284 7.04095 267.284 7.03928C267.386 7.00338 268.206 7.22593 268.307 7.1889C268.767 7.00408 268.48 6.77744 270.239 6.22686C270.823 6.06243 272.115 5.17441 272.863 5.30654C273.494 5.43918 273.781 6.78414 274.568 7.15578C273.432 7.451 275.244 8.44862 275.319 9.17695C275.386 9.72504 274.944 10.406 274.949 10.9608C274.956 11.1714 275.538 12.85 275.502 12.9578Z" fill="#8FCBFF"/>
</svg>
