<svg viewBox="0 0 200 200" fill="none" xmlns="http://www.w3.org/2000/svg">
<path d="M109.684 173H95.1579V163.267H109.684V173Z" fill="currentColor"/>
<path d="M95.1579 153.533H80.6316V143.8H95.1579V153.533Z" fill="currentColor"/>
<path d="M124.211 153.533H109.684V143.8H124.211V153.533Z" fill="currentColor"/>
<path d="M80.6316 134.067H61.2632V124.333H80.6316V134.067Z" fill="currentColor"/>
<path d="M138.737 134.067H109.684V124.333H138.737V134.067Z" fill="currentColor"/>
<path d="M70.9474 114.6H46.7368V104.867H70.9474V114.6Z" fill="currentColor"/>
<path d="M153.263 114.6H114.526V104.867H153.263V114.6Z" fill="currentColor"/>
<path d="M56.4211 95.1333H27.3684V85.4H56.4211V95.1333Z" fill="currentColor"/>
<path d="M167.789 95.1333H119.368V85.4H167.789V95.1333Z" fill="currentColor"/>
<path d="M192 75.6667H8V65.9333H56.4211V56.2H32.2105V46.4667H70.9474V36.7333H56.4211V27H143.579V36.7333H114.526V46.4667H167.789V56.2H124.211V65.9333H192V75.6667Z" fill="currentColor"/>
</svg>
