<svg width="404" height="145" viewBox="0 0 404 145" fill="none" xmlns="http://www.w3.org/2000/svg">
<g id="tricentis-flood">
<g id="Group 2">
<g id="Group 3">
<mask id="mask0" mask-type="alpha" maskUnits="userSpaceOnUse" x="0" y="0" width="144" height="145">
<path id="Clip 2" fill-rule="evenodd" clip-rule="evenodd" d="M0.0599981 72.188V69.2198C1.61851 30.7436 33.3423 0.188004 72.209 0.188004C111.861 0.188004 144 32.327 144 72.188C144 111.84 111.861 144.188 72 144.188C33.3371 144.188 1.61841 113.632 0.0599976 75.1563L0.0599981 75.1563V72.188ZM131.689 72.188C131.689 39.143 105.045 12.499 72.173 12.499C39.128 12.499 12.311 39.143 12.311 72.188C12.311 105.233 39.128 131.877 72 131.877C105.045 131.877 131.689 105.06 131.689 72.188Z" fill="white"/>
</mask>
<g mask="url(#mask0)">
<path id="Fill 1" fill-rule="evenodd" clip-rule="evenodd" d="M0.0600014 144.2H144.06V0.0800018H0.0600014V144.2Z" fill="#4285F4"/>
</g>
</g>
<g id="Group 6">
<mask id="mask1" mask-type="alpha" maskUnits="userSpaceOnUse" x="20" y="48" width="104" height="50">
<path id="Clip 5" fill-rule="evenodd" clip-rule="evenodd" d="M123.243 93.127C123.243 90.315 119.79 88.909 118.978 88.106C118.165 87.302 116.946 85.897 115.728 83.085C114.306 79.873 113.29 75.455 112.071 71.438C108.618 59.992 105.165 48.345 95.415 48.345C90.743 48.345 86.884 51.156 84.039 56.578C82.008 60.394 80.383 65.213 78.961 69.832C77.539 74.049 76.117 78.266 74.492 81.278C73.273 83.688 72.055 84.492 71.648 84.692C69.008 84.893 67.789 83.688 64.539 79.069C61.492 74.651 57.227 68.627 48.695 68.627C39.96 68.627 35.695 75.455 32.648 80.676C29.601 85.696 27.976 87.503 25.335 88.106C22.694 88.709 20.257 90.315 20.257 93.127C20.257 95.938 22.491 97.745 25.335 97.745C34.07 97.745 38.335 90.918 41.382 85.696C44.429 80.676 46.054 78.667 48.695 78.667C51.539 78.667 53.164 80.475 56.211 84.893C59.461 89.511 63.727 95.536 72.664 94.933C81.805 94.13 85.258 83.487 88.712 73.246C90.134 69.029 91.759 64.812 93.181 61.799C94.196 59.39 95.009 59.59 95.618 59.59C96.227 59.59 97.04 59.189 98.462 63.004C99.681 66.217 101.306 70.635 102.524 74.651C105.978 86.098 109.431 97.745 119.181 97.745C121.415 97.343 123.243 95.938 123.243 93.127Z" fill="white"/>
</mask>
<g mask="url(#mask1)">
<path id="Fill 4" fill-rule="evenodd" clip-rule="evenodd" d="M20.257 97.745H123.243V48.345H20.257V97.745Z" fill="#4285F4"/>
</g>
</g>
<g id="Group">
<path id="Fill 7" fill-rule="evenodd" clip-rule="evenodd" d="M176.005 58.4153C179.255 54.8047 183.959 53 190.116 53L219.568 53.1023V112.568C219.568 116.451 219.943 119.093 220.697 120.487C221.448 121.884 222.783 122.924 224.698 123.604C229.35 125.034 231.915 125.749 232.396 125.749V133.311H221.62C216.694 133.311 213.136 131.865 210.947 128.968C208.757 126.073 207.663 121.085 207.663 114V62.604H192.476C189.26 62.604 186.883 63.4225 185.345 65.0571C183.806 66.6916 183.035 69.7229 183.035 74.1507V79.0556H196.376V88.762H182.932V133.311H171.029V88.762H162V80.7925L171.132 79.0556V74.1507C171.132 67.271 172.756 62.0258 176.005 58.4153Z" fill="#4285F4"/>
<path id="Fill 8" fill-rule="evenodd" clip-rule="evenodd" d="M248.301 95.0452C247.862 96.4481 247.557 98.1246 247.39 100.075C247.219 102.025 247.135 104.369 247.135 107.104C247.135 109.841 247.237 112.134 247.439 113.981C247.642 115.829 247.997 117.368 248.505 118.6C249.012 119.83 249.569 120.822 250.179 121.575C250.787 122.329 251.598 122.91 252.612 123.32C254.302 123.868 256.415 124.142 258.953 124.142C261.489 124.142 263.33 124.057 264.479 123.884C265.629 123.714 266.777 123.339 267.926 122.756C269.078 122.174 269.922 121.268 270.464 120.036C271.613 117.3 272.189 113.775 272.189 109.466C272.189 105.154 272.103 102.025 271.935 100.075C271.765 98.1246 271.459 96.4481 271.021 95.0452C270.582 93.6448 270.092 92.549 269.55 91.7616C269.008 90.9753 268.232 90.3755 267.218 89.9656C265.597 89.2821 263.497 88.9236 260.929 88.8878C258.359 88.8543 256.534 88.9057 255.452 89.0419C254.372 89.1794 253.306 89.4697 252.258 89.9142C251.209 90.3599 250.397 90.9753 249.823 91.7616C249.248 92.549 248.741 93.6448 248.301 95.0452ZM240.645 128.092C238.75 125.871 237.398 123.1 236.588 119.778C235.776 116.462 235.37 111.689 235.37 105.461C235.37 99.237 236.164 94.0714 237.752 89.9656C239.342 85.8599 241.844 82.9705 245.259 81.2928C248.674 79.6176 253.491 78.7787 259.711 78.7787C268.906 78.7787 275.245 80.8316 278.729 84.9362C282.211 89.0419 283.953 96.3465 283.953 106.849C283.953 117.351 282.211 124.553 278.729 128.451C275.245 132.352 268.906 134.302 259.711 134.302C255.047 134.302 251.174 133.821 248.099 132.866C245.023 131.907 242.536 130.317 240.645 128.092V128.092Z" fill="#4285F4"/>
<path id="Fill 9" fill-rule="evenodd" clip-rule="evenodd" d="M304.816 95.0452C304.376 96.4481 304.071 98.1246 303.903 100.075C303.733 102.025 303.649 104.369 303.649 107.104C303.649 109.841 303.752 112.134 303.954 113.981C304.157 115.829 304.513 117.368 305.018 118.6C305.526 119.83 306.083 120.822 306.693 121.575C307.301 122.329 308.112 122.91 309.127 123.32C310.816 123.868 312.931 124.142 315.466 124.142C318.002 124.142 319.843 124.057 320.995 123.884C322.143 123.714 323.292 123.339 324.443 122.756C325.591 122.174 326.435 121.268 326.977 120.036C328.129 117.3 328.703 113.775 328.703 109.466C328.703 105.154 328.618 102.025 328.45 100.075C328.28 98.1246 327.975 96.4481 327.537 95.0452C327.097 93.6448 326.606 92.549 326.066 91.7616C325.524 90.9753 324.745 90.3755 323.732 89.9656C322.111 89.2821 320.013 88.9236 317.444 88.8878C314.873 88.8543 313.047 88.9057 311.968 89.0419C310.885 89.1794 309.82 89.4697 308.771 89.9142C307.722 90.3599 306.912 90.9753 306.338 91.7616C305.763 92.549 305.255 93.6448 304.816 95.0452ZM297.158 128.092C295.265 125.871 293.913 123.1 293.101 119.778C292.289 116.462 291.885 111.689 291.885 105.461C291.885 99.237 292.679 94.0714 294.268 89.9656C295.855 85.8599 298.358 82.9705 301.773 81.2928C305.187 79.6176 310.005 78.7787 316.227 78.7787C325.422 78.7787 331.761 80.8316 335.244 84.9362C338.726 89.0419 340.468 96.3465 340.468 106.849C340.468 117.351 338.726 124.553 335.244 128.451C331.761 132.352 325.422 134.302 316.227 134.302C311.562 134.302 307.689 133.821 304.613 132.866C301.536 131.907 299.051 130.317 297.158 128.092V128.092Z" fill="#4285F4"/>
<path id="Fill 10" fill-rule="evenodd" clip-rule="evenodd" d="M359.331 107.27C359.331 118.234 362.106 123.715 367.657 123.715C373.069 123.715 378.209 122.414 383.075 119.809V90.5157C378.415 89.009 373.276 88.2539 367.657 88.2539C365.807 88.2539 364.299 88.7015 363.134 89.5906C360.598 91.5784 359.331 97.471 359.331 107.27ZM347.409 106.652C347.409 95.3468 349.085 87.6388 352.443 83.5257C355.252 80.0325 359.537 78.2841 365.292 78.2841C367.761 78.2841 370.69 78.6276 374.081 79.3121C377.474 79.999 380.506 80.9228 383.178 82.0872V53H395V133.685H385.543L383.075 127.928C381.226 129.436 378.569 130.875 375.108 132.246C371.649 133.618 368.376 134.302 365.292 134.302C353.37 134.302 347.409 125.086 347.409 106.652V106.652Z" fill="#4285F4"/>
</g>
<g id="Group 4">
<g id="Tricentis-Logo">
<path id="Fill 1_2" fill-rule="evenodd" clip-rule="evenodd" d="M325.097 18.9363H334.372V41.9949H342.068V18.9363H351.343V12H325.097V18.9363" fill="#4285F4"/>
<path id="Fill 2" fill-rule="evenodd" clip-rule="evenodd" d="M221.99 41.9949H231.363V12H221.99V41.9949Z" fill="#4285F4"/>
<path id="Fill 3" fill-rule="evenodd" clip-rule="evenodd" d="M249.957 19.2346C252.851 19.2346 255.247 20.5052 256.944 22.9003L263.233 18.3055C260.288 14.1021 254.898 12 249.957 12C240.375 12 233.238 18.9413 233.238 27.9353C233.238 36.9292 240.276 43.8696 249.957 43.8696C254.898 43.8696 259.789 41.8652 263.233 37.5644L257.044 33.1651C255.447 35.3165 252.851 36.6353 249.957 36.6353C245.066 36.6353 241.173 32.7741 241.173 27.9353C241.173 23.0961 245.016 19.2346 249.957 19.2346" fill="#4285F4"/>
<path id="Fill 4_2" fill-rule="evenodd" clip-rule="evenodd" d="M266.982 41.9949H293.228V35.0586H274.935V30.1844H289.848V23.2481H274.935V19.1238H293.228V12H266.982V41.9949" fill="#4285F4"/>
<path id="Fill 5" fill-rule="evenodd" clip-rule="evenodd" d="M355.092 41.9949H364.465V12H355.092V41.9949Z" fill="#4285F4"/>
<path id="Fill 6" fill-rule="evenodd" clip-rule="evenodd" d="M375.662 20.9712C375.662 19.3147 377.216 18.3028 380.626 18.3028C383.584 18.3028 385.89 19.2228 388.596 21.661L394.16 17.1529C391.303 13.6101 386.742 12 380.926 12C373.958 12 367.691 15.496 367.691 21.1095C367.691 33.3008 386.49 27.7338 386.49 32.3344C386.49 34.3125 384.585 35.2788 380.674 35.2788C377.116 35.2788 373.509 33.4386 372.154 31.1378L366.34 35.9228C370.15 40.1084 375.16 41.9949 380.426 41.9949C387.444 41.9949 394.46 38.4066 394.46 31.9664C394.46 19.5447 375.662 25.5714 375.662 20.9712" fill="#4285F4"/>
<path id="Fill 7_2" fill-rule="evenodd" clip-rule="evenodd" d="M162 18.9363H171.275V41.9949H179.168V18.9363H188.246V12H162V18.9363" fill="#4285F4"/>
<path id="Fill 8_2" fill-rule="evenodd" clip-rule="evenodd" d="M313.849 26.3034L295.102 12V41.9465H302.601V27.5067L321.348 41.9949V12.0415H313.849V26.3034" fill="#4285F4"/>
<path id="Fill 9_2" fill-rule="evenodd" clip-rule="evenodd" d="M206.027 25.8726H199.675V18.9363H206.027C209.359 18.9363 210.354 20.5079 210.354 22.4279C210.354 24.3946 209.359 25.8726 206.027 25.8726ZM218.012 22.4056C218.012 16.5519 213.437 12 206.475 12H191.995V41.9949H199.675V32.809H203.988L209.38 41.9949H218.24L211.846 31.1249C215.524 30.1424 218.012 26.3859 218.012 22.4056V22.4056Z" fill="#4285F4"/>
</g>
</g>
</g>
</g>
</svg>
